<svg width="472" height="472" viewBox="0 0 472 472" fill="none" xmlns="http://www.w3.org/2000/svg">
<g opacity="0.18">
<path d="M209.383 63.498C211.461 68.7223 214.54 73.481 216.379 78.7726C217.813 82.8995 218.759 87.0796 219.669 91.322C220.387 94.6689 220.604 98.225 220.604 101.651" stroke="white" stroke-width="2.69314" stroke-linecap="round" stroke-linejoin="round"/>
<path d="M195.051 78.7598C195.051 84.6337 194.825 90.5462 195.583 96.3747C196.059 100.024 196.648 103.444 196.648 107.147C196.648 107.544 196.819 113.123 197.713 111.076" stroke="white" stroke-width="2.69314" stroke-linecap="round" stroke-linejoin="round"/>
<path d="M209.383 162.247C214.761 167.488 220.592 172.235 225.946 177.496C227.695 179.215 229.389 181.578 231.377 182.894" stroke="white" stroke-width="2.69314" stroke-linecap="round" stroke-linejoin="round"/>
<path d="M335.062 243.938C333.686 245.717 331.378 248.118 329.227 248.876" stroke="white" stroke-width="2.69314" stroke-linecap="round" stroke-linejoin="round"/>
<path d="M307.233 261.893C307.233 272.03 306.02 282.063 305.953 292.177C305.945 293.43 305.594 303.645 306.593 303.171" stroke="white" stroke-width="2.69314" stroke-linecap="round" stroke-linejoin="round"/>
<path d="M442.788 349.42C430.961 349.42 419.139 349.42 407.328 349.42" stroke="white" stroke-width="2.69314" stroke-linecap="round" stroke-linejoin="round"/>
<path d="M482.736 450.861C476.318 453.718 469.586 456.656 462.986 458.941" stroke="white" stroke-width="2.69314" stroke-linecap="round" stroke-linejoin="round"/>
<path d="M480.044 90.8789C474.956 92.6318 470.448 95.3481 465.462 97.212C463.906 97.7937 460.048 99.1869 458.947 98.1167" stroke="white" stroke-width="2.69314" stroke-linecap="round" stroke-linejoin="round"/>
<path d="M188.734 301.393C193.073 305.859 199.523 311.032 201.452 317.295C201.742 318.236 201.573 318.235 202.2 317.295" stroke="white" stroke-width="2.69314" stroke-linecap="round" stroke-linejoin="round"/>
<path d="M212.525 313.512C216.628 317.52 221.523 320.691 225.542 324.733" stroke="white" stroke-width="2.69314" stroke-linecap="round" stroke-linejoin="round"/>
<path d="M256.064 445.476C257.058 445.982 263.776 450.862 263.694 450.862" stroke="white" stroke-width="2.69314" stroke-linecap="round" stroke-linejoin="round"/>
<path d="M211.178 427.521C215.919 438.96 223.658 450.943 224.552 463.576C224.735 466.159 224.586 461.303 224.586 460.74" stroke="white" stroke-width="2.69314" stroke-linecap="round" stroke-linejoin="round"/>
<path d="M197.264 441.885C194.976 451.184 194.767 461.768 197.264 471.06" stroke="white" stroke-width="2.69314" stroke-linecap="round" stroke-linejoin="round"/>
<path d="M95.373 459.839C103.54 458.981 111.585 457.834 119.611 456.248" stroke="white" stroke-width="2.69314" stroke-linecap="round" stroke-linejoin="round"/>
<path d="M56.7715 348.522C62.9313 349.368 68.9319 349.42 75.1746 349.42" stroke="white" stroke-width="2.69314" stroke-linecap="round" stroke-linejoin="round"/>
<path d="M37.4701 295.396C35.4663 291.872 32.5007 285.683 27.6724 285.683C24.203 285.683 20.9422 287.003 17.7395 288.246C14.0513 289.678 10.4186 291.423 10.1378 295.767C9.79766 301.031 11.2607 304.94 14.6988 308.955C17.3284 312.026 27.1145 317.33 30.6455 312.395C32.2597 310.139 33.7099 308.079 34.4632 305.447C34.694 304.641 35.1458 303.43 35.6457 302.681" stroke="white" stroke-width="2.69314" stroke-linecap="round" stroke-linejoin="round"/>
<path d="M101.656 98.9582C106.636 96.6914 111.79 94.9382 116.917 93.123" stroke="white" stroke-width="2.69314" stroke-linecap="round" stroke-linejoin="round"/>
<path d="M382.355 397.306C385.974 397.956 389.303 398.393 389.048 393.891C388.9 391.271 385.653 388.769 383.267 388.769C378.471 388.769 372.404 393.875 368.765 396.657C364.339 400.04 362.734 404.881 367.345 408.712C371.62 412.265 380.307 412.262 385.397 411.171C392.011 409.754 399.684 400.277 397.534 393.242C394.414 383.038 385.964 374.554 375.289 373.743C368.629 373.236 358.651 374.934 354.363 380.709" stroke="white" stroke-width="2.69314" stroke-linecap="round" stroke-linejoin="round"/>
<path d="M384.106 35.9698C384.817 31.4939 383.762 25.2716 379.09 23.1348C375.362 21.4296 369.216 29.1388 367.093 31.284C361.931 36.4982 358.652 42.7644 362.28 49.9593C365.575 56.4944 376.329 58.4999 382.75 57.3616C391.631 55.7874 399.775 48.8561 399.222 39.4332C398.991 35.4964 397.525 31.5682 396.646 27.7527C395.734 23.7919 395.164 19.5723 393.392 15.8684C390.314 9.432 379.569 11.4441 374.278 13.0161C364.953 15.7861 355.842 18.7746 346.283 20.69" stroke="white" stroke-width="2.69314" stroke-linecap="round" stroke-linejoin="round"/>
<path d="M466.85 131.275C469.778 129.36 474.266 123.782 469.986 120.671C467.573 118.918 463.297 121.277 461.512 123.028C456.593 127.854 467.994 130.502 470.32 126.562C470.794 125.759 470.801 121.908 469.852 121.391C467.669 120.201 463.327 124.242 462.38 125.679C460.67 128.271 461.344 129.74 464.215 130.653C471.483 132.966 472.9 127.707 474.656 121.85" stroke="white" stroke-width="2.69314" stroke-linecap="round" stroke-linejoin="round"/>
<path d="M157.467 229.453C161.162 230.333 172.24 234.494 169.662 226.893C167.817 221.451 163.48 216.442 157.434 216.217C151.915 216.011 144.08 218.678 140.448 222.852C132.862 231.567 143.73 236.892 151.102 239.221C159.885 241.995 172.057 245.133 180.283 239.288C189.521 232.723 187.573 220.438 180.182 213.185C171.142 204.313 158.488 206.113 146.88 205.674C144.554 205.586 139.095 206.295 137.566 203.99" stroke="white" stroke-width="2.69314" stroke-linecap="round" stroke-linejoin="round"/>
<path d="M400.48 297.626C400.988 292.617 399.971 286.562 394.436 284.777C389.402 283.153 384.42 286.316 380.48 289.337C375.169 293.41 365.451 304.182 369.829 311.739C374.871 320.445 397.904 316.871 399.511 306.613C400.086 302.947 396.29 299.23 394.069 296.76C392.206 294.688 389.413 289.837 386.657 289.837" stroke="white" stroke-width="2.69314" stroke-linecap="round" stroke-linejoin="round"/>
<path d="M229.365 250.426C236.643 248.466 244.442 246.832 252.01 246.633C255.325 246.545 247.337 252.371 246.784 252.776C242.057 256.241 237.085 259.483 232.112 262.579C230.823 263.381 227.122 264.952 228.561 265.433C233.27 267.006 240.541 265.833 245.444 266.003C247.954 266.091 251.796 265.647 254.255 266.742C254.7 266.94 249.856 269.352 249.531 269.495C247.977 270.176 239.29 272.354 242.698 274.631C244.853 276.071 250.79 277.56 247.789 280.036C243.843 283.294 253.499 286.504 255.159 287.355C258.974 289.31 256.822 289.285 258.308 291.518" stroke="white" stroke-width="2.69314" stroke-linecap="round" stroke-linejoin="round"/>
<path d="M364.688 177.957C370.185 178.593 375.678 179.266 381.197 179.696C384.012 179.915 387.355 179.7 390.058 180.665C391.453 181.164 385.701 184.226 385.307 184.444C379.478 187.669 372.993 189.473 367.012 192.369C361.467 195.053 371.643 194.195 372.908 194.174C379.019 194.073 385.127 193.887 391.237 193.74C391.52 193.733 396.717 193.606 397.975 193.606C398.36 193.606 398.865 193.454 399.121 193.74C399.904 194.614 396.906 194.572 395.751 194.81C390.671 195.854 385.636 197.175 380.657 198.621C379.368 198.996 365.314 202.754 368.899 204.774C375.194 208.32 397.454 207.859 390.26 208.653C388.121 208.889 379.943 208.132 378.771 210.458C378.42 211.154 380.994 211.783 380.994 212.866C380.994 214.948 377.614 215.96 376.951 217.815C375.836 220.933 385.836 222.092 387.261 222.496C392.287 223.921 389.613 223.677 385.981 224.067C384.775 224.197 374.426 224.909 375.031 227.612C375.271 228.685 381.178 230.242 382.275 230.922" stroke="white" stroke-width="2.69314" stroke-linecap="round" stroke-linejoin="round"/>
<path d="M17.2871 176.161C26.249 178.494 35.664 179.689 44.4745 182.509C47.1538 183.367 44.135 184.569 42.9229 185.23C35.364 189.354 27.0723 191.754 18.9737 194.567C15.4132 195.804 11.8366 197.033 8.34833 198.464C8.08678 198.571 6.09923 199.02 7.37012 199.169C13.7416 199.915 20.1157 199.65 26.5295 199.874C28.0478 199.927 30.5845 199.821 32.1626 200.344C32.2662 200.379 27.7633 201.278 27.7101 201.285C23.8193 201.78 19.9132 202.162 16.0053 202.494C14.8575 202.592 10.4698 202.27 9.32653 203.233C9.29486 203.26 14.8892 204.891 14.9934 204.912C20.1522 205.963 25.714 206.086 30.7122 207.801C36.1683 209.673 19.1922 208.628 13.4755 209.413C9.00181 210.028 22.3185 211.333 26.5969 212.772C32.6537 214.809 25.4361 216.535 22.6504 217.575C20.4942 218.38 10.3238 220.947 16.7474 223.957C19.2345 225.122 21.9898 225.863 24.6405 226.543C24.7041 226.559 30.9432 227.743 29.7677 228.29C28.5215 228.869 18.1716 231.551 19.1761 232.051C21.5166 233.217 25.579 232.203 27.474 234.201C27.9496 234.703 25.7874 234.72 25.7874 235.41" stroke="white" stroke-width="2.69314" stroke-linecap="round" stroke-linejoin="round"/>
<path d="M108.539 117.361C103.276 119.022 97.9515 120.598 95.9645 126.451C93.6996 133.123 98.2296 136.645 104.613 135.575C108.301 134.957 115.66 131.75 113.329 126.655C111.909 123.553 105.494 122.838 102.684 123.602C100.898 124.088 99.2416 126.122 100.488 127.74C102.734 130.654 108.301 127.823 110.401 126.044C110.671 125.816 112.216 124.121 111 123.874C108.89 123.443 106.26 126.44 105.046 127.74C104.193 128.654 101.494 133.857 103.748 130.793" stroke="white" stroke-width="2.69314" stroke-linecap="round" stroke-linejoin="round"/>
<path d="M16.7699 44.3979C21.8205 43.4403 31.7972 44.649 30.6452 37.0991C29.6095 30.3109 24.4967 24.904 17.4036 25.2135C10.5158 25.5141 5.33507 32.4502 3.49484 38.5723C0.927178 47.1144 7.15918 51.5133 14.9687 52.4667C22.4509 53.3801 38.587 55.0343 41.8523 45.2014C44.6099 36.8972 36.4919 30.6525 30.812 26.2514C27.7657 23.891 24.3379 21.6574 21.7063 18.8188C20.1598 17.1506 19.6354 15.8497 17.3702 15.4707" stroke="white" stroke-width="2.69314" stroke-linecap="round" stroke-linejoin="round"/>
<path d="M8.24587 400.114C12.623 400.795 18.551 401.479 20.1204 396.035C20.9816 393.048 20.5684 388.382 18.2988 386.004C9.12166 376.389 -10.9231 391.143 -9.09368 402.589C-7.58616 412.02 5.86919 418.802 14.7904 418.036C22.7707 417.351 28.7122 408.818 32.6697 402.856C35.8067 398.13 39.9662 391.318 40.1587 385.402C40.2662 382.101 38.4665 379.828 36.313 377.512C31.0268 371.825 24.1482 367.14 17.8939 362.599C16.1558 361.337 11.0738 356.54 9.32538 360.192C8.10968 362.731 8.01151 363.909 8.85309 366.411" stroke="white" stroke-width="2.69314" stroke-linecap="round" stroke-linejoin="round"/>
<path d="M376.142 499.338C376.57 492.003 376.972 484.664 377.19 477.32C377.236 475.749 377.31 473.194 377.19 471.487C377.189 471.485 377.055 468.466 376.338 468.801C374.923 469.462 373.577 473.101 372.867 474.371C370.912 477.869 368.942 481.311 366.842 484.725C365.283 487.259 362.349 495.552 362.618 492.588C363.166 486.562 363.829 480.135 363.044 474.109C362.504 469.965 355.001 482.612 354.301 483.742C352.54 486.581 350.858 489.573 348.865 492.261C347.115 494.621 347.737 487.573 347.719 487.149C347.473 481.497 347.171 475.836 346.278 470.242C345.807 467.288 345.607 459.582 343.396 457.169C343.122 456.87 332.766 477.618 332.165 479.253C331.48 481.117 330.642 486.832 330.233 484.888C329.438 481.108 330.477 476.415 330.626 472.601C330.665 471.601 331.757 458.614 329.643 462.936C325.881 470.629 322.472 478.423 318.969 486.232C318.284 487.758 318.286 485.248 318.248 484.921C317.598 479.243 316.876 473.567 316.021 467.916C315.396 463.778 314.765 459.656 314.286 455.498C314.126 454.114 314.043 452.463 312.812 454.187C308.537 460.176 304.723 466.672 299.944 472.274C295.537 477.439 296.473 469.462 296.702 466.376C297.137 460.498 298.088 454.339 299.518 448.617" stroke="white" stroke-width="2.69314" stroke-linecap="round" stroke-linejoin="round"/>
<path d="M246.666 371.414C238.479 371.963 230.116 372.166 221.975 373.32C218.109 373.868 221.517 374.994 223.412 375.554C233.531 378.548 243.735 381.321 253.982 383.834C258.435 384.927 263.01 385.81 267.373 387.251C267.916 387.431 269.033 388.409 268.483 388.566C264.729 389.637 260.119 389.705 256.333 390.044C248.157 390.778 239.97 391.229 231.773 391.654C224.428 392.035 217.053 392.281 209.727 392.969C208.57 393.077 205.603 393.004 206.363 393.889C209.099 397.075 217.01 397.976 220.734 399.014C221.406 399.202 230.24 401.633 228.768 402.037C227.626 402.351 224.944 402.582 227.527 403.746C234.241 406.772 241.925 407.298 249.083 408.543C249.961 408.696 258.347 409.205 253.917 410.58C250.813 411.544 247.311 411.477 244.314 412.683C243.251 413.111 235.179 415.987 235.431 416.495C236.305 418.253 240.354 419.134 241.963 419.583C243.025 419.88 250.076 420.976 247.254 421.686" stroke="white" stroke-width="2.69314" stroke-linecap="round" stroke-linejoin="round"/>
<path d="M293.327 326.958C291.631 332.867 288.303 339.204 287.493 345.253C287.228 347.232 293.111 343.122 293.132 343.112C303.148 337.943 313.161 332.767 323.345 327.931C324.971 327.159 326.794 324.92 328.332 325.855C329.74 326.712 326.331 328.484 325.138 329.618C318.148 336.262 309.731 342.197 303.952 349.989C301.83 352.851 312.167 346.003 312.818 345.61C318.208 342.353 324.254 338.537 330.483 337.079C332.918 336.509 329.152 340.795 329.114 340.841C325.979 344.671 320.938 348.102 318.489 352.389C317.675 353.813 327.444 350.761 328.332 350.378C333.207 348.271 345.96 338.775 342.151 342.463C339.919 344.625 329.657 356.309 337.719 356.152C342.084 356.066 346.902 355.312 351.017 353.816C352.628 353.23 350.831 353.232 350.234 353.232" stroke="white" stroke-width="2.69314" stroke-linecap="round" stroke-linejoin="round"/>
<path d="M163.645 300.943C152.528 303.402 141.356 305.495 130.191 307.715C125.397 308.668 120.457 309.461 115.769 310.888C112.613 311.849 117.245 311.566 117.601 311.575C121.696 311.683 160.636 313.081 160.636 316.547C160.636 317.637 155.402 318.409 155.011 318.477C144.726 320.278 133.353 320.061 123.618 324.235C121.571 325.112 123.793 325.649 124.795 325.936C130.162 327.47 135.727 327.749 141.277 327.898C149.535 328.121 157.804 328.029 166.065 328.029C167.038 328.029 171.79 327.355 172.801 328.029C173.531 328.516 171.094 328.442 170.25 328.683C166.716 329.694 163.205 330.545 159.59 331.235C157.977 331.543 153.161 331.646 151.774 333.034C150.45 334.358 155.267 334.441 157.104 334.801C162.143 335.788 167.188 336.25 172.311 336.534C172.36 336.537 180.567 336.685 179.341 337.32C177.492 338.276 167.882 340.924 170.904 344.451C173.175 347.1 184.011 346.255 180.846 347.722C176.967 349.52 171.095 348.865 167.7 351.582C166.964 352.171 175.536 353.72 176.398 353.807C179.353 354.102 181.549 354.625 184.247 355.704" stroke="white" stroke-width="2.69314" stroke-linecap="round" stroke-linejoin="round"/>
<path d="M309.036 89.9805C309.036 97.3889 308.985 104.801 309.167 112.208C309.258 115.959 309.177 126.908 310.474 123.387C311.539 120.499 311.132 116.268 311.488 113.287C312.311 106.396 313.688 99.4673 315.837 92.857C316.604 90.4977 317.41 89.4326 317.995 92.3994C319.682 100.963 318.97 110.073 319.074 118.746C319.142 124.46 319.442 130.163 319.597 135.874C319.73 140.802 321.213 135.934 322.245 133.847C325.383 127.504 328.253 121.052 331.073 114.562C331.965 112.509 333.221 109.565 334.212 107.436C334.696 106.395 335.667 103.348 335.945 104.461C336.368 106.152 334.393 110.632 334.049 112.175C332.991 116.909 331.888 121.677 331.073 126.46C330.654 128.924 331.93 126.698 332.643 125.937C337.96 120.262 343.79 115.065 349.22 109.495C352.834 105.788 356.324 101.92 360.108 98.3812C361.374 97.1967 358.111 104.824 357.819 105.671C356.973 108.124 349.869 134.66 351.868 134.926C353.227 135.107 356.179 130.814 356.773 130.056C359.692 126.326 361.916 122.236 363.77 117.896C364.473 116.25 364.882 115.616 363.966 117.961C362.699 121.206 360.986 124.257 359.748 127.506C359.493 128.175 358.541 130.241 360.108 129.239C363.297 127.198 366.105 124.374 368.871 121.818C370.096 120.686 372.53 116.886 372.663 118.55C372.844 120.81 370.439 124.639 369.688 126.689C369.401 127.472 367.512 131.098 368.02 132.115C368.128 132.33 372.356 128.211 372.533 128.029C374.724 125.774 376.703 123.386 378.353 120.707C380.038 117.968 379.495 120.219 379.039 122.08C378.584 123.94 376.542 128.181 379.072 128.814" stroke="white" stroke-width="2.69314" stroke-linecap="round" stroke-linejoin="round"/>
<path d="M168.536 148.389C167.517 146.842 153.826 127.666 152.074 128.616C150.356 129.548 150.353 137.704 150.296 139.092C150.146 142.782 150.253 146.472 150.461 150.157C150.566 152.016 151.491 155.859 150.658 157.654C150.13 158.792 148.985 155.778 148.189 154.806C145.547 151.576 142.728 148.494 139.991 145.345C137.936 142.979 135.918 140.61 134.032 138.11C133.872 137.898 131.931 134.679 131.793 136.604C131.401 142.062 131.976 147.746 132.517 153.169C133.177 159.773 133.302 167.617 135.579 173.956C136.237 175.788 135.257 170.072 134.888 168.162C134.363 165.447 133.165 158.856 130.345 157.326C128.338 156.238 124.728 175.856 124.682 177.263C124.468 183.787 122.841 168.046 119.974 169.472C117.948 170.478 118.685 175.425 119.941 176.674" stroke="white" stroke-width="2.69314" stroke-linecap="round" stroke-linejoin="round"/>
<path d="M246.761 63.9959C243.56 63.4572 240.367 62.8788 237.167 62.3351C232.171 61.4863 237.981 62.9638 238.711 63.1492C242.145 64.0209 245.614 64.9479 249.094 65.6242C251.954 66.1801 250.179 64.6473 248.996 63.6703C244.43 59.899 237.685 58.8993 233.421 54.9753C232.125 53.7822 236.82 53.9163 238.58 53.7379C241.332 53.4589 244.869 53.5677 247.386 52.2073C248.374 51.6728 248.62 50.928 247.681 50.1882C247.521 50.062 245.312 49.0298 245.776 49.0159C247.592 48.9613 258.754 50.5124 257.801 47.7133C256.572 44.1008 252.365 41.333 249.259 39.5719C241.892 35.3959 233.785 32.717 225.798 29.9977C220.045 28.0388 220.292 27.9521 222.513 23.5498" stroke="white" stroke-width="2.69314" stroke-linecap="round" stroke-linejoin="round"/>
<path d="M234.07 322.488C241.816 328.347 252.401 334.318 257.737 342.72C258.294 343.597 259.441 346.727 260.104 346.727" stroke="white" stroke-width="2.69314" stroke-linecap="round" stroke-linejoin="round"/>
<path d="M61.2598 222.54C62.4801 217.433 63.6228 212.299 64.912 207.209C64.956 207.035 65.2938 204.378 66.0859 205.708C68.0694 209.039 69.5438 212.796 71.2382 216.277C73.39 220.698 75.8108 225.357 78.7383 229.325C79.8251 230.797 79.8881 225.315 79.9775 224.888C80.9416 220.293 82.0323 215.48 83.4341 210.993C84.1652 208.652 83.5236 215.968 84.2819 218.299C84.6666 219.482 86.2091 222.809 87.8037 222.866C89.3428 222.921 90.9599 219.075 91.5212 218.104C92.9781 215.581 93.8746 212.808 95.1734 210.21C95.2828 209.991 96.128 213.068 96.2821 213.472C96.8566 214.977 98.5446 221.641 101.043 221.3C102.814 221.059 104.907 217.003 105.739 215.755C107.48 213.142 108.19 208.475 110.304 206.361C111.056 205.609 109.65 208.388 109.424 209.427C109.062 211.087 108.775 212.754 109.065 214.45C109.893 219.303 111.365 217.48 114.674 215.494" stroke="white" stroke-width="2.69314" stroke-linecap="round" stroke-linejoin="round"/>
<ellipse cx="171.454" cy="445.027" rx="6.50842" ry="6.73285" fill="white"/>
<ellipse cx="65.9731" cy="284.336" rx="9.20156" ry="9.42599" fill="white"/>
<circle cx="426.18" cy="282.092" r="9.87485" fill="white"/>
<ellipse cx="287.932" cy="285.009" rx="9.42599" ry="9.20156" fill="white"/>
<ellipse cx="169.659" cy="82.1258" rx="9.20156" ry="8.75271" fill="white"/>
<path d="M501.894 54.5211C505.161 53.6172 508.489 52.9103 511.736 51.9421C512.328 51.7656 515.412 51.0453 513.584 50.1736C505.921 46.5185 496.636 46.836 488.594 44.2787C486.001 43.4541 483.211 39.9361 486.454 38.1259C489.726 36.2994 493.22 34.9148 496.534 33.1705C497.022 32.9137 500.33 31.9492 500.449 31.7705C501.196 30.6418 485.783 24.1456 485.136 23.8676C481.265 22.2032 477.197 20.714 473.574 18.5254C472.838 18.0802 472.579 17.9383 473.245 17.7148" stroke="white" stroke-width="2.69314" stroke-linecap="round" stroke-linejoin="round"/>
<path d="M431.117 42.8509C431.969 35.7131 435.757 29.3248 440.249 23.8524C441.487 22.3448 442.955 20.8842 443.685 19.0615" stroke="white" stroke-width="2.69314" stroke-linecap="round" stroke-linejoin="round"/>
<path d="M370.971 67.0889C363.696 68.4323 356.343 69.5946 349.159 71.3486C348.873 71.4184 346.051 72.0743 346.886 72.4751" stroke="white" stroke-width="2.69314" stroke-linecap="round" stroke-linejoin="round"/>
<path d="M309.926 169.877C318.856 170.6 327.895 171.224 336.857 171.224" stroke="white" stroke-width="2.69314" stroke-linecap="round" stroke-linejoin="round"/>
<path d="M357.955 155.065C362.296 154.905 366.629 154.721 370.972 154.616" stroke="white" stroke-width="2.69314" stroke-linecap="round" stroke-linejoin="round"/>
<path d="M421.242 101.202C423.411 107.653 427.451 113.216 429.77 119.605" stroke="white" stroke-width="2.69314" stroke-linecap="round" stroke-linejoin="round"/>
<path d="M292.014 38.6497C298.609 39.7009 305.207 40.7266 311.91 40.5956C314.147 40.5519 315.348 40.2019 316.883 38.6723C320.003 35.5642 311.363 34.2996 309.911 33.9432C304.973 32.731 299.912 32.1404 294.876 31.4994C293.529 31.328 292.177 31.195 290.833 31.0016C289.789 30.8514 290.541 30.6541 291.129 30.5038C293.937 29.7865 297.006 29.8529 299.872 29.5988C300.564 29.5374 309.672 28.4203 309.434 28.128C308.018 26.3856 304.756 25.2648 302.78 24.4397C299.632 23.1258 296.357 21.9432 293.104 20.9099C292.351 20.6706 291.935 20.5247 293.15 20.4121C296.399 20.1109 299.75 20.3215 303.007 20.3215C303.886 20.3215 311.416 21.0188 311.864 19.9595C312.503 18.4474 302.074 15.2434 301.508 15.072C296.758 13.6346 291.959 12.2705 287.154 11.0217C286.472 10.8443 288.941 11.3228 289.153 11.3611" stroke="white" stroke-width="2.69314" stroke-linecap="round" stroke-linejoin="round"/>
<path d="M138.608 55.8677C142.095 54.6296 146.667 53.7207 149.749 51.5386C151.083 50.5941 148.559 49.8059 148.073 49.6247C140.192 46.6828 132.322 43.8322 124.615 40.4198C121.675 39.1183 117.922 37.945 115.331 35.954C114.178 35.068 118.138 35.106 119.588 35.0426C123.93 34.8527 128.286 34.9658 132.63 34.9515C133.83 34.9475 140.301 35.7114 141.258 34.2679C142.937 31.7334 127.716 25.0444 126.494 24.5161C124.323 23.5776 123.857 23.4612 121.829 22.7617C121.296 22.5778 120.047 22.5103 120.312 22.0098C120.848 20.9998 124.39 20.6992 125.407 20.4149C130.304 19.0462 127.068 17.247 123.799 16.1086C121.302 15.2389 118.807 14.7087 116.214 14.2631C113.908 13.8669 119.425 14.4428 119.452 14.4454" stroke="white" stroke-width="2.69314" stroke-linecap="round" stroke-linejoin="round"/>
<path d="M113.775 56.7656C117.56 60.1093 120.553 63.9807 124.099 67.5382" stroke="white" stroke-width="2.69314" stroke-linecap="round" stroke-linejoin="round"/>
<path d="M67.0957 42.402C72.3784 33.9783 77.8449 25.7355 83.7034 17.7148" stroke="white" stroke-width="2.69314" stroke-linecap="round" stroke-linejoin="round"/>
<path d="M221.502 113.771C219.309 119.102 218.313 124.672 216.976 130.249C216.886 130.624 216.564 134.182 216.564 132.721" stroke="white" stroke-width="2.69314" stroke-linecap="round" stroke-linejoin="round"/>
<path d="M175.719 111.975C176.103 117.696 177.665 123.276 178.888 128.86C178.929 129.043 179.31 132.219 179.31 130.996" stroke="white" stroke-width="2.69314" stroke-linecap="round" stroke-linejoin="round"/>
<path d="M233.172 134.418C240.044 128.082 246.946 121.169 255.102 116.44C255.817 116.026 255.945 115.402 256.512 115.117" stroke="white" stroke-width="2.69314" stroke-linecap="round" stroke-linejoin="round"/>
<path d="M277.608 95.8154C276.372 103.881 276.316 112.071 275.095 120.133C274.981 120.886 273.531 128.133 273.569 128.133" stroke="white" stroke-width="2.69314" stroke-linecap="round" stroke-linejoin="round"/>
<path d="M449.521 180.522C447.231 169.905 445.176 158.995 440.835 148.979C440.24 147.607 439.813 145.591 438.85 147.659C433.931 158.219 435.132 171.552 435.226 182.912C435.23 183.327 435.241 184.572 435.226 184.157C435.136 181.635 435.05 179.189 434.755 176.663C433.733 167.931 431.966 159.143 429.171 150.796C428.195 147.882 427.567 150.327 426.887 152.315C425.324 156.886 424.792 161.594 423.636 166.232C422.948 168.994 423.413 160.529 422.966 157.717C422.888 157.228 421.928 150.036 421.105 150.099C419.974 150.186 418.173 155.792 417.854 156.522C416.782 158.974 415.684 163.8 413.411 165.51C412.983 165.832 412.087 158.845 412.046 158.614C411.288 154.345 410.785 149.623 409.316 145.518C408.509 143.262 407.572 146.507 408.87 147.809" stroke="white" stroke-width="2.69314" stroke-linecap="round" stroke-linejoin="round"/>
<path d="M351.67 308.125C346.662 302.929 341.74 299.126 335.062 296.455" stroke="white" stroke-width="2.69314" stroke-linecap="round" stroke-linejoin="round"/>
<path d="M428.424 401.936C432.972 394.557 438.027 387.217 441.89 379.493" stroke="white" stroke-width="2.69314" stroke-linecap="round" stroke-linejoin="round"/>
<path d="M472.861 415.851C475.614 418.662 478.285 421.534 481.636 423.581C483.139 424.499 484.539 425.469 485.878 426.623" stroke="white" stroke-width="2.69314" stroke-linecap="round" stroke-linejoin="round"/>
<path d="M420.795 460.287C421.965 465.801 426.292 469.149 427.977 474.202" stroke="white" stroke-width="2.69314" stroke-linecap="round" stroke-linejoin="round"/>
<path d="M274.018 485.872C275.005 476.74 277.856 467.573 277.856 458.366C277.856 456.628 279.571 453.663 277.43 455.459" stroke="white" stroke-width="2.69314" stroke-linecap="round" stroke-linejoin="round"/>
<path d="M183.798 491.259C181.174 483.924 178.885 476.39 175.719 469.265" stroke="white" stroke-width="2.69314" stroke-linecap="round" stroke-linejoin="round"/>
<path d="M112.43 415.402C117.911 419.358 124.304 422.66 129.037 427.521" stroke="white" stroke-width="2.69314" stroke-linecap="round" stroke-linejoin="round"/>
<path d="M57.2207 462.083C60.7733 465.753 64.1887 469.557 67.719 473.252C68.6501 474.227 71.1565 477.744 72.033 477.307" stroke="white" stroke-width="2.69314" stroke-linecap="round" stroke-linejoin="round"/>
<path d="M69.7891 401.487C73.3264 396.733 77.4742 392.568 81.1102 387.922C81.6681 387.209 82.4222 386.545 82.8059 385.777" stroke="white" stroke-width="2.69314" stroke-linecap="round" stroke-linejoin="round"/>
<path d="M52.2821 334.607C43.762 335.676 35.2284 336.37 26.6973 337.301" stroke="white" stroke-width="2.69314" stroke-linecap="round" stroke-linejoin="round"/>
<path d="M217.463 282.092C222.915 287.614 227.927 293.832 234.968 297.353" stroke="white" stroke-width="2.69314" stroke-linecap="round" stroke-linejoin="round"/>
<path d="M91.3333 179.303C88.2798 171.225 86.3041 162.993 84.5256 154.564C84.4597 154.251 83.9059 148.888 83.1541 148.416C82.414 147.951 80.1761 164.271 80.0121 165.384C80.0034 165.443 78.8452 169.744 78.7404 169.589C77.1918 167.298 77.1412 163.103 76.521 160.515C75.4805 156.172 73.9956 151.88 72.1571 147.801C70.5759 144.292 68.7153 151.003 68.2421 152.154C66.8641 155.506 66.0298 158.617 65.6487 162.187C65.4429 164.116 65.3506 164.023 65.2747 162.113C65.1107 157.989 64.0468 153.814 62.806 149.891C61.9554 147.202 60.6376 143.928 58.6914 148.022C56.5868 152.45 55.3014 157.27 54.0782 161.99C53.4895 164.262 53.1946 160.436 53.0807 159.949C52.1705 156.059 51.2166 152.077 49.041 148.662C48.7705 148.237 46.8965 145.354 46.8965 145.662" stroke="white" stroke-width="2.69314" stroke-linecap="round" stroke-linejoin="round"/>
<path d="M57.6699 99.8555C60.5074 103.884 63.5159 107.768 66.4476 111.725C67.0561 112.547 67.6785 113.273 67.9936 114.219" stroke="white" stroke-width="2.69314" stroke-linecap="round" stroke-linejoin="round"/>
<path d="M292.422 369.17C305.896 373.706 319.384 378.114 333.078 381.937C334.432 382.315 338.397 383.144 337.022 383.434C329.071 385.107 320.673 385.475 312.613 386.251C307.625 386.732 301.757 386.512 296.936 388.022C295.727 388.401 301.841 390.076 302.195 390.166C306.924 391.375 311.751 392.119 316.483 393.308C316.797 393.387 319.956 393.792 318.368 394.555C316.579 395.416 314.47 395.699 312.564 396.201C311.31 396.531 308.645 397.053 311.224 397.872C312.11 398.153 314.854 398.219 313.953 398.445C311.375 399.093 308.468 399.052 306.015 400.141C305.092 400.551 305.824 401.93 304.924 402.834C304.149 403.613 302.406 404.67 304.031 405.078" stroke="white" stroke-width="2.69314" stroke-linecap="round" stroke-linejoin="round"/>
<path d="M484.259 357.499C478.614 358.743 472.937 359.82 467.356 361.339C462.512 362.658 467.546 363.074 469.852 364.032C471.81 364.846 473.772 365.647 475.733 366.451C476.408 366.728 479.126 367.389 479.514 368.272C479.827 368.982 469.953 374.567 468.962 375.229C468.617 375.46 462.591 379.406 463.007 380.141C463.444 380.913 472.2 379.084 472.793 379.044C478.252 378.674 483.732 378.389 489.201 378.246C491.433 378.188 495.164 378.146 497.455 378.146C498.488 378.146 501.436 377.871 500.544 378.396C496.556 380.743 490.395 381.313 485.939 382.086C483.1 382.579 473.878 383.987 481.195 386.076C483.915 386.853 486.661 387.511 489.399 388.221C489.529 388.255 494.177 389.62 493.6 390.166C490.889 392.731 484.786 393.566 483.073 397.198C482.353 398.724 501.479 401.095 502.644 401.263C506.727 401.851 510.997 402.215 515 403.282C517.845 404.041 515.746 404.59 514.061 404.978C512.177 405.412 501.193 406.503 501.483 409.716C501.54 410.35 505.925 410.72 506.499 410.913" stroke="white" stroke-width="2.69314" stroke-linecap="round" stroke-linejoin="round"/>
<path d="M130.035 356.152C123.404 358.488 116.776 359.731 109.862 360.89C107.222 361.333 104.553 361.686 101.932 362.237C100.117 362.618 102.219 363.054 102.824 363.234C109.839 365.323 117.091 366.425 124.038 368.77C125.901 369.399 127.865 369.386 125.624 370.616C121.156 373.068 116.29 374.284 111.473 375.852C109.31 376.557 105.116 377.72 109.788 378.196C118.95 379.13 128.066 380.525 137.173 381.887C137.932 382 140.061 382.063 139.403 382.46C137.719 383.477 135.327 383.713 133.455 384.181C131.018 384.79 124.261 385.08 122.551 387.123C121.688 388.155 125.8 389.148 126.12 389.268C127.095 389.634 132.92 390.442 130.729 392.161C129.615 393.035 118.293 397.428 118.958 398.32C119.986 399.699 123.709 400.022 125.153 400.34C127.583 400.875 130.065 401.163 132.489 401.711C134.845 402.245 130.806 403.337 130.135 403.731C128.372 404.766 139.185 408.087 140.147 408.394C141.532 408.837 145.515 409.164 146.095 410.913" stroke="white" stroke-width="2.69314" stroke-linecap="round" stroke-linejoin="round"/>
<path d="M140.258 363.748C145.666 363.748 151.68 364.12 156.866 362.437" stroke="white" stroke-width="2.69314" stroke-linecap="round" stroke-linejoin="round"/>
<path d="M158.213 270.464C152.364 268.345 146.822 265.984 141.688 262.415C141.19 262.069 139.063 259.887 139.094 261.719C139.202 268.137 143.187 272.238 147.344 276.526C148.294 277.506 146.467 276.515 146.183 276.402C142.605 274.979 139.174 273.335 135.833 271.408C132.501 269.487 129.267 267.208 125.731 265.669C123.957 264.898 125.39 266.918 125.755 267.682C126.266 268.75 132.239 276.821 131.486 277.172C129.532 278.083 126.326 276.871 124.471 276.427C120.107 275.382 115.914 273.854 111.626 272.551C105.95 270.826 114.748 277.635 116.023 278.464C116.433 278.73 121.744 282.091 119.531 282.091" stroke="white" stroke-width="2.69314" stroke-linecap="round" stroke-linejoin="round"/>
<path d="M349.157 208.567C346.278 204.438 343.122 200.69 339.65 197.03C338.031 195.325 331.838 187.383 328.624 187.383C327.773 187.383 328.826 189.104 329.197 189.869C330.982 193.558 333.502 196.937 335.867 200.263C340.831 207.244 345.33 214.063 348.41 222.094C348.411 222.096 350.182 227.161 349.829 226.868C347.905 225.266 346.143 223.369 344.329 221.646C339.77 217.316 335.296 213.123 329.993 209.711C327.719 208.248 327.653 208.576 327.653 211.054C327.653 214.558 327.799 218.095 327.653 221.596C327.607 222.718 326.608 220.276 326.558 220.204C324.525 217.221 321.56 214.735 318.893 212.347C318.095 211.633 309.894 205.632 310.356 207.249C311.993 212.972 317.704 216.822 319.938 222.243C320.225 222.938 313.618 220.128 313.293 220.005C311.596 219.361 301.519 215.122 300.127 217.146C298.509 219.497 301.087 224.67 301.869 226.967C302.548 228.962 304.391 232.376 302.989 234.476C302.337 235.453 301.458 236.163 301.421 237.46C301.399 238.223 302.02 238.603 301.222 239.001" stroke="white" stroke-width="2.69314" stroke-linecap="round" stroke-linejoin="round"/>
<path d="M200.255 183.343C192.717 184.024 185.117 184.026 177.591 184.834C174.104 185.208 177.964 185.752 179.23 186.021C184.781 187.202 190.522 187.169 196.089 188.258C196.886 188.414 193.718 189.749 193.561 189.804C190.07 191.039 186.058 191.677 182.924 193.725C181.078 194.932 187.706 195.248 188.09 195.272C190.697 195.436 193.325 195.463 195.922 195.769C196.604 195.849 197.776 195.877 196.7 196.597C194.777 197.883 192.631 198.834 190.589 199.911C190.26 200.084 187.96 200.924 189.006 201.568C194.342 204.851 201.316 205.664 207.142 207.794C207.873 208.061 214.188 209.952 212.767 211.702C211.181 213.654 208.288 213.81 206.045 214.297C205.412 214.435 200.657 215.621 202.963 217.1C203.665 217.551 209.947 218.602 209.906 218.784C209.667 219.855 204.809 220.834 203.81 221.242C202.726 221.684 201.409 222.29 202.032 223.617C202.667 224.97 203.611 226.384 204.754 227.331" stroke="white" stroke-width="2.69314" stroke-linecap="round" stroke-linejoin="round"/>
<circle cx="267.061" cy="327.65" r="8.75271" fill="white"/>
<ellipse cx="370.074" cy="346.054" rx="7.63057" ry="6.95728" fill="white"/>
<circle cx="292.87" cy="425.726" r="8.07942" fill="white"/>
<path d="M101.209 259.649C101.209 263.615 97.9938 265.933 94.0274 265.933C90.0611 265.933 86.8457 263.615 86.8457 259.649C86.8457 255.682 90.0611 252.467 94.0274 252.467C97.9938 252.467 101.209 255.682 101.209 259.649Z" fill="white"/>
<circle cx="244.842" cy="151.923" r="7.18171" fill="white"/>
<ellipse cx="292.646" cy="67.0889" rx="7.40614" ry="7.18171" fill="white"/>
<path d="M407.777 58.1123C416.036 58.9575 424.329 59.1313 432.615 59.5602C434.263 59.6455 446.133 58.718 439.97 62.2952C433.975 65.7752 424.098 69.02 419.674 74.6026C418.794 75.7126 420.022 75.8794 420.96 75.8896C426.614 75.9511 432.257 75.208 437.92 75.5678C443.607 75.9292 430.437 80.6843 436.634 84.8185C438.611 86.1372 441.01 86.2622 443.185 87.0306C443.761 87.2339 439.35 88.8633 438.805 89.0818C435.376 90.4544 438.47 90.1407 439.126 91.4548C439.547 92.2983 436.971 93.6218 438.483 96.0801C440.261 98.9714 441.37 101.071 438.161 102.998" stroke="white" stroke-width="2.69314" stroke-linecap="round" stroke-linejoin="round"/>
<path d="M199.058 36.4915C198.089 37.6274 189.903 48.7556 187.138 47.1887C186.1 46.6003 195.051 30.36 195.815 28.2876C197.989 22.3856 189.495 28.7195 187.665 29.6147C185.937 30.4603 176.213 34.1558 176.354 33.9982C178.587 31.5058 182.765 28.9636 183.935 25.7139C184.228 24.9002 173.779 27.5245 172.381 27.805C167.912 28.7016 169.451 26.4176 171.002 23.3412C173.182 19.0165 173.677 16.3013 172.056 11.8799" stroke="white" stroke-width="2.69314" stroke-linecap="round" stroke-linejoin="round"/>
<path d="M53.6289 58.1528C63.9728 58.1528 74.3546 57.9333 84.6869 58.5165C89.8206 58.8063 86.1758 59.5431 83.8823 60.1738C81.2773 60.8901 64.2402 65.0536 65.5371 68.6621C66.526 71.4135 70.5649 71.5674 72.8591 71.9362C74.7092 72.2336 76.2919 72.4516 78.1293 72.6233C78.7885 72.6849 80.2748 72.2242 80.1006 72.8658C79.5061 75.056 68.1974 77.9543 73.4223 81.0712C76.3128 82.7956 79.8803 83.1589 83.0776 84.0219C85.85 84.7703 81.137 85.4135 80.5431 85.5579C75.3724 86.8148 69.0233 87.1583 64.2498 89.6C62.3564 90.5684 68.1821 91.3523 70.2843 91.6614C70.5228 91.6965 77.9304 92.2335 76.8017 93.8037C76.4939 94.2318 75.7532 94.8417 76.4798 95.2588C77.3133 95.7374 79.6482 96.0368 78.9741 96.714" stroke="white" stroke-width="2.69314" stroke-linecap="round" stroke-linejoin="round"/>
<path d="M146.093 81.4521C146.023 85.3605 145.195 89.2333 145.195 93.1224" stroke="white" stroke-width="2.69314" stroke-linecap="round" stroke-linejoin="round"/>
<path d="M302.295 157.31C297.351 163.741 293.021 170.631 288.014 177.003C287.072 178.202 286.157 179.229 285.688 180.65" stroke="white" stroke-width="2.69314" stroke-linecap="round" stroke-linejoin="round"/>
<path d="M424.384 257.248C423.205 255.835 414.617 244.112 413.592 249.291C413.196 251.29 413.611 257.849 413.592 257.41C413.402 252.988 407.845 260.775 407.197 261.489C403.494 265.572 405.064 257.507 403.519 254.905C401.693 251.83 399.939 260.522 398.123 260.318C395.522 260.026 395.742 248.718 391.847 254.663C389.623 258.058 387.48 261.662 384.613 264.559C381.991 267.208 380.922 263.55 380.176 261.287C378.53 256.297 379.243 256.88 375.459 259.429" stroke="white" stroke-width="2.69314" stroke-linecap="round" stroke-linejoin="round"/>
<path d="M483.635 238.104C479.462 238.936 475.874 240.7 471.965 242.143" stroke="white" stroke-width="2.69314" stroke-linecap="round" stroke-linejoin="round"/>
<path d="M415.408 417.392C424.585 417.679 433.78 417.834 442.959 417.532C443.111 417.527 450.623 416.596 448.782 417.863C439.95 423.946 428.176 424.276 419.819 431.038C417.924 432.572 421.944 432.447 422.335 432.45C428.594 432.495 434.829 432.086 441.081 431.892C444.306 431.792 437.581 433.819 436.911 434.088C436.598 434.214 430.424 436.7 431.329 437.469C433.128 438.999 438.027 438.427 440.185 438.55C441.06 438.599 446.353 438.122 443.613 439.735C441.391 441.042 438.288 441.893 436.515 443.83C435.595 444.835 437.95 446.442 438.496 447.072C438.976 447.624 440.972 449.765 440.081 450.645C438.557 452.151 435.386 451.813 433.5 452.701C433.312 452.789 435.306 453.318 435.602 453.468C436.202 453.771 435.666 454.898 435.567 455.35" stroke="white" stroke-width="2.69314" stroke-linecap="round" stroke-linejoin="round"/>
<path d="M480.47 342.665C476.111 342.712 471.774 342.711 467.422 342.389C464.209 342.152 460.829 341.89 457.737 340.886C456.971 340.637 456.05 340.217 455.556 339.542C454.882 338.625 456.622 338.16 457.163 337.944C462.778 335.702 468.899 334.965 474.659 333.171C476.423 332.621 478.188 331.958 479.832 331.107C481.078 330.462 480.356 330.374 479.364 330.239C474.225 329.539 469.086 328.813 463.974 327.932C460.232 327.287 455.902 326.496 452.671 324.355C452.131 323.996 451.545 323.651 451.032 323.254C450.432 322.788 452.795 322.748 452.82 322.746C456.469 322.497 460.247 323.09 463.868 322.64C464.139 322.606 463.467 322.242 463.208 322.153C461.868 321.693 460.488 321.362 459.089 321.137C452.993 320.159 446.827 319.689 440.879 317.92C439.944 317.642 439.813 317.453 440.666 317.009C442.081 316.274 443.666 315.851 445.179 315.38C448.04 314.489 450.928 313.668 453.736 312.617C455.45 311.976 457.499 311.249 458.993 310.151C460.204 309.261 457.188 308.226 456.833 308.077C453.792 306.8 450.61 305.975 447.371 305.367C446.387 305.183 445.636 305.267 445.317 304.245C444.946 303.056 445.16 302.138 445.413 300.943" stroke="white" stroke-width="2.69314" stroke-linecap="round" stroke-linejoin="round"/>
<path d="M199.508 399.475C196.979 402.083 193.704 404.236 190.585 406.069C189.563 406.669 189.244 406.579 189.29 405.276C189.345 403.726 189.533 402.184 189.618 400.637C189.831 396.754 189.713 392.855 189.571 388.972C189.464 386.068 189.152 383.246 188.697 380.384C188.638 380.01 187.241 382.28 187.153 382.409C185.559 384.756 183.899 387.038 182.363 389.427C181.862 390.207 181.031 391.678 181.615 389.741C181.931 388.69 182.369 387.682 182.613 386.609C182.99 384.955 183.066 383.214 183.066 381.522C183.066 379.987 181.864 381.24 181.217 381.781C178.241 384.272 175.316 386.609 171.911 388.501C171.59 388.679 168.502 390.442 168.432 389.246C168.3 386.977 168.864 384.655 168.9 382.378C168.906 382.025 168.958 381.593 168.869 381.247C168.734 380.721 167.268 381.848 167.153 381.915C166.218 382.461 165.278 383.014 164.283 383.445C163.626 383.73 162.429 384.345 161.662 384.152C160.483 383.855 163.059 376.513 163.425 375.454" stroke="white" stroke-width="2.69314" stroke-linecap="round" stroke-linejoin="round"/>
<path d="M50.4883 415.851C57.8474 416.39 65.2103 416.827 72.5745 417.285C77.6282 417.599 82.6885 417.796 87.7415 418.115C89.5164 418.227 91.3763 418.322 93.1196 418.725C94.0603 418.943 93.3451 419.665 92.8326 419.921C88.3563 422.154 83.3647 423.351 78.7199 425.174C74.8472 426.693 70.831 428.284 67.2588 430.452C67.2192 430.476 65.804 431.244 66.5787 431.332C67.9912 431.494 69.5791 431.263 70.9897 431.263C74.0894 431.263 77.1626 431.42 80.2485 431.716C82.2104 431.904 84.4306 431.944 86.3066 432.653C86.8797 432.87 87.0595 433.059 86.4937 433.433C84.8408 434.528 82.3964 434.697 80.5292 435.031C78.2735 435.436 75.9917 435.738 73.7599 436.271C72.844 436.489 70.4291 436.802 69.8418 437.755C69.0134 439.1 77.3454 441.022 78.0773 441.215C78.9186 441.438 84.3338 442.146 82.0453 443.908C81.4563 444.361 76.0267 447.078 76.5175 447.921C77.0211 448.786 79.1602 449.266 79.949 449.532C83.1 450.593 86.3402 451.386 89.5571 452.212C90.0798 452.346 92.3222 452.589 92.8264 453.168C92.9301 453.287 92.5989 453.401 92.452 453.457C92.033 453.619 91.0891 453.901 90.7176 454.011C88.9464 454.536 87.1637 455.028 85.4518 455.734C85.0227 455.912 84.3415 456.122 84.204 456.653C84.1698 456.785 84.2893 457 84.2414 457.106C84.1664 457.272 83.1249 456.861 83.056 456.842" stroke="white" stroke-width="2.69314" stroke-linecap="round" stroke-linejoin="round"/>
<path d="M120.509 344.034C112.969 342.601 105.269 342.939 97.6306 342.798C95.1683 342.753 92.7152 342.641 90.2605 342.445C89.3322 342.37 87.0881 342.52 86.2464 341.827C84.8486 340.676 91.8885 336.354 92.3004 336.132C97.8889 333.12 104.128 331.334 109.574 328.075C109.843 327.914 110.618 327.713 110.353 327.546C109.814 327.207 107.647 327.336 107.172 327.303C101.132 326.879 95.0776 326.969 89.0321 326.63C86.0581 326.463 83.085 326.269 80.1266 325.912C79.9458 325.89 75.5707 325.615 76.5073 324.809C79.6807 322.076 84.6664 321.37 88.4947 320.074C88.5308 320.062 89.9576 319.66 89.8876 319.246C89.7932 318.688 87.4992 318.343 87.3541 318.308C82.7061 317.198 77.8813 317.136 73.239 316.068C72.5982 315.92 72.6185 315.74 73.1952 315.45C75.044 314.52 77.0713 313.92 79.0079 313.209C80.0454 312.828 86.7368 311.116 85.3251 309.159C84.3779 307.846 81.8121 307.168 80.302 306.808C79.86 306.703 79.7725 306.691 80.2801 306.466C81.4974 305.927 82.7454 305.483 84.031 305.142C84.7053 304.963 85.7562 304.882 86.3012 304.369C87.3089 303.421 82.8455 301.411 82.8026 301.389C80.1823 300.065 77.4474 299.063 74.599 298.365C74.041 298.229 72.151 297.84 71.3746 297.814C69.5994 297.752 71.9044 297.939 71.1552 298.145" stroke="white" stroke-width="2.69314" stroke-linecap="round" stroke-linejoin="round"/>
<path d="M64.4012 258.414C61.1228 254.305 58.3065 250.044 55.5059 245.614C55.3258 245.329 53.5485 242.098 52.8715 242.657C51.38 243.887 50.8463 247.09 50.4244 248.811C49.6167 252.107 49.4448 256.157 47.6467 259.124C46.6782 260.722 45.8527 258.227 45.4422 257.498C43.7496 254.489 41.7809 252 39.1372 249.75C38.4606 249.174 37.6771 248.229 36.9988 249.139C35.5167 251.127 34.0486 253.115 32.4134 254.988C31.2052 256.372 29.3984 258.23 27.3761 258.294C25.8151 258.344 25.0349 256.368 24.6094 255.206C24.0645 253.718 23.4014 248.797 20.8837 250.459C18.4292 252.079 16.5932 256.427 13.1238 255.272C11.4302 254.708 10.8319 252.522 9.64062 251.343" stroke="white" stroke-width="2.69314" stroke-linecap="round" stroke-linejoin="round"/>
<path d="M146.991 439.191C146.726 440.483 144.98 460.17 145.92 459.366" stroke="white" stroke-width="2.69314" stroke-linecap="round" stroke-linejoin="round"/>
<path d="M62.6055 369.17C61.1902 369.83 51.8823 379.892 56.8909 379.481" stroke="white" stroke-width="2.69314" stroke-linecap="round" stroke-linejoin="round"/>
<path d="M109.287 243.04C113.232 241.884 116.95 240.398 120.545 238.416C121.522 237.878 123.012 237.247 123.651 236.308" stroke="white" stroke-width="2.69314" stroke-linecap="round" stroke-linejoin="round"/>
<path d="M416.306 382.187C415.296 376.192 416.306 370.226 416.306 364.232" stroke="white" stroke-width="2.69314" stroke-linecap="round" stroke-linejoin="round"/>
<path d="M232.273 198.101C239.547 194.903 246.917 192.06 254.52 189.757C254.763 189.683 259.6 187.7 257.452 189.446C251.45 194.323 244.29 197.34 238.26 202.076C237.667 202.542 236.917 203.321 238.158 203.464C241.631 203.862 245.4 203.218 248.84 202.78C251.956 202.384 255.032 201.825 258.128 201.331C260.003 201.032 254.681 202.946 252.9 203.609C249.491 204.877 247.109 205.745 243.673 207.128C240.534 208.393 236.423 209.622 233.647 211.725C231.567 213.3 243.432 214.02 244.206 214.044C246.158 214.104 248.194 214.097 250.152 214.044C250.718 214.028 253.608 213.528 254.212 214.002C254.509 214.235 253.561 214.39 253.207 214.52C252.043 214.948 250.899 215.324 249.906 216.114C242.952 221.655 257.016 223.722 260.199 224.024C262.778 224.268 262.067 223.997 265.489 224.189" stroke="white" stroke-width="2.69314" stroke-linecap="round" stroke-linejoin="round"/>
<circle cx="389.374" cy="441.885" r="8.52828" fill="white"/>
<circle cx="28.0439" cy="441.885" r="8.52828" fill="white"/>
<circle cx="212.974" cy="348.522" r="8.52828" fill="white"/>
<circle cx="28.4931" cy="79.6572" r="8.52828" fill="white"/>
<circle cx="284.341" cy="203.093" r="8.52828" fill="white"/>
<ellipse cx="196.59" cy="144.293" rx="7.40614" ry="7.63057" fill="white"/>
<circle cx="389.824" cy="81.0036" r="7.63057" fill="white"/>
<path d="M369.175 425.726C362.184 426.891 355.146 427.834 348.178 429.112C347.591 429.219 345.848 429.454 346.384 429.208" stroke="white" stroke-width="2.69314" stroke-linecap="round" stroke-linejoin="round"/>
<path d="M258.309 83.6963C260.492 85.4779 262.635 86.7318 264.144 89.0826" stroke="white" stroke-width="2.69314" stroke-linecap="round" stroke-linejoin="round"/>
<path d="M414.06 334.159C408.939 335.109 402.672 335.483 398.071 338.244C396.137 339.404 394.296 340.072 392.066 340.443" stroke="white" stroke-width="2.69314" stroke-linecap="round" stroke-linejoin="round"/>
<path d="M468.457 206.304C469.262 209.025 475.129 222.126 471.901 225.327C471.343 225.879 467.034 219.483 466.525 218.882C463.025 214.75 459.344 210.762 455.738 206.722C453.834 204.591 453.536 206.468 452.786 208.673C451.172 213.417 450.116 218.119 450.116 223.132C450.116 224.639 451.287 228.974 450.608 227.626C449.486 225.403 447.723 223.401 445.934 221.704C442.341 218.293 438.576 214.966 434.901 211.635C432.999 209.91 432.66 210.34 432.688 212.924C432.707 214.715 434.81 229.329 434.234 229.125C431.52 228.164 428.752 227.331 426.047 226.337C423.252 225.311 419.797 223.237 416.736 223.237C414.845 223.237 416.595 227.534 416.595 226.999" stroke="white" stroke-width="2.69314" stroke-linecap="round" stroke-linejoin="round"/>
<path d="M501.894 54.5211C505.161 53.6172 508.489 52.9103 511.736 51.9421C512.328 51.7656 515.412 51.0453 513.584 50.1736C505.921 46.5185 496.636 46.836 488.594 44.2787C486.001 43.4541 483.211 39.9361 486.454 38.1259C489.726 36.2994 493.22 34.9148 496.534 33.1705C497.022 32.9137 500.33 31.9492 500.449 31.7705C501.196 30.6418 485.783 24.1456 485.136 23.8676C481.265 22.2032 477.197 20.714 473.574 18.5254C472.838 18.0802 472.579 17.9383 473.245 17.7148" stroke="white" stroke-width="2.69314" stroke-linecap="round" stroke-linejoin="round"/>
<path d="M472.861 415.851C475.614 418.662 478.285 421.534 481.636 423.581C483.139 424.499 484.539 425.469 485.878 426.623" stroke="white" stroke-width="2.69314" stroke-linecap="round" stroke-linejoin="round"/>
<path d="M484.259 357.499C478.614 358.743 472.937 359.82 467.356 361.339C462.512 362.658 467.546 363.074 469.852 364.032C471.81 364.846 473.772 365.647 475.733 366.451C476.408 366.728 479.126 367.389 479.514 368.272C479.827 368.982 469.953 374.567 468.962 375.229C468.617 375.46 462.591 379.406 463.007 380.141C463.444 380.913 472.2 379.084 472.793 379.044C478.252 378.674 483.732 378.389 489.201 378.246C491.433 378.188 495.164 378.146 497.455 378.146C498.488 378.146 501.436 377.871 500.544 378.396C496.556 380.743 490.395 381.313 485.939 382.086C483.1 382.579 473.878 383.987 481.195 386.076C483.915 386.853 486.661 387.511 489.399 388.221C489.529 388.255 494.177 389.62 493.6 390.166C490.889 392.731 484.786 393.566 483.073 397.198C482.353 398.724 501.479 401.095 502.644 401.263C506.727 401.851 510.997 402.215 515 403.282C517.845 404.041 515.746 404.59 514.061 404.978C512.177 405.412 501.193 406.503 501.483 409.716C501.54 410.35 505.925 410.72 506.499 410.913" stroke="white" stroke-width="2.69314" stroke-linecap="round" stroke-linejoin="round"/>
<path d="M442.788 349.42C430.961 349.42 419.139 349.42 407.328 349.42" stroke="white" stroke-width="2.69314" stroke-linecap="round" stroke-linejoin="round"/>
<path d="M482.736 450.861C476.318 453.718 469.586 456.656 462.986 458.941" stroke="white" stroke-width="2.69314" stroke-linecap="round" stroke-linejoin="round"/>
<path d="M480.044 90.8789C474.956 92.6318 470.448 95.3481 465.462 97.212C463.906 97.7937 460.048 99.1869 458.947 98.1167" stroke="white" stroke-width="2.69314" stroke-linecap="round" stroke-linejoin="round"/>
<path d="M382.355 397.306C385.974 397.956 389.303 398.393 389.048 393.891C388.9 391.271 385.653 388.769 383.267 388.769C378.471 388.769 372.404 393.875 368.765 396.657C364.339 400.04 362.734 404.881 367.345 408.712C371.62 412.265 380.307 412.262 385.397 411.171C392.011 409.754 399.684 400.277 397.534 393.242C394.414 383.038 385.964 374.554 375.289 373.743C368.629 373.236 358.651 374.934 354.363 380.709" stroke="white" stroke-width="2.69314" stroke-linecap="round" stroke-linejoin="round"/>
<path d="M384.106 35.9698C384.817 31.4939 383.762 25.2716 379.09 23.1348C375.362 21.4296 369.216 29.1388 367.093 31.284C361.931 36.4982 358.652 42.7644 362.28 49.9593C365.575 56.4944 376.329 58.4999 382.75 57.3616C391.631 55.7874 399.775 48.8561 399.222 39.4332C398.991 35.4964 397.525 31.5682 396.646 27.7527C395.734 23.7919 395.164 19.5723 393.392 15.8684C390.314 9.432 379.569 11.4441 374.278 13.0161C364.953 15.7861 355.842 18.7746 346.283 20.69" stroke="white" stroke-width="2.69314" stroke-linecap="round" stroke-linejoin="round"/>
<path d="M466.85 131.275C469.778 129.36 474.266 123.782 469.986 120.671C467.573 118.918 463.297 121.277 461.512 123.028C456.593 127.854 467.994 130.502 470.32 126.562C470.794 125.759 470.801 121.908 469.852 121.391C467.669 120.201 463.327 124.242 462.38 125.679C460.67 128.271 461.344 129.74 464.215 130.653C471.483 132.966 472.9 127.707 474.656 121.85" stroke="white" stroke-width="2.69314" stroke-linecap="round" stroke-linejoin="round"/>
<path d="M364.688 177.957C370.185 178.593 375.678 179.266 381.197 179.696C384.012 179.915 387.355 179.7 390.058 180.665C391.453 181.164 385.701 184.226 385.307 184.444C379.478 187.669 372.993 189.473 367.012 192.369C361.467 195.053 371.643 194.195 372.908 194.174C379.019 194.073 385.127 193.887 391.237 193.74C391.52 193.733 396.717 193.606 397.975 193.606C398.36 193.606 398.865 193.454 399.121 193.74C399.904 194.614 396.906 194.572 395.751 194.81C390.671 195.854 385.636 197.175 380.657 198.621C379.368 198.996 365.314 202.754 368.899 204.774C375.194 208.32 397.454 207.859 390.26 208.653C388.121 208.889 379.943 208.132 378.771 210.458C378.42 211.154 380.994 211.783 380.994 212.866C380.994 214.948 377.614 215.96 376.951 217.815C375.836 220.933 385.836 222.092 387.261 222.496C392.287 223.921 389.613 223.677 385.981 224.067C384.775 224.197 374.426 224.909 375.031 227.612C375.271 228.685 381.178 230.242 382.275 230.922" stroke="white" stroke-width="2.69314" stroke-linecap="round" stroke-linejoin="round"/>
<path d="M376.142 499.338C376.57 492.003 376.972 484.664 377.19 477.32C377.236 475.749 377.31 473.194 377.19 471.487C377.189 471.485 377.055 468.466 376.338 468.801C374.923 469.462 373.577 473.101 372.867 474.371C370.912 477.869 368.942 481.311 366.842 484.725C365.283 487.259 362.349 495.552 362.618 492.588C363.166 486.562 363.829 480.135 363.044 474.109C362.504 469.965 355.001 482.612 354.301 483.742C352.54 486.581 350.858 489.573 348.865 492.261C347.115 494.621 347.737 487.573 347.719 487.149C347.473 481.497 347.171 475.836 346.278 470.242C345.807 467.288 345.607 459.582 343.396 457.169C343.122 456.87 332.766 477.618 332.165 479.253C331.48 481.117 330.642 486.832 330.233 484.888C329.438 481.108 330.477 476.415 330.626 472.601C330.665 471.601 331.757 458.614 329.643 462.936C325.881 470.629 322.472 478.423 318.969 486.232C318.284 487.758 318.286 485.248 318.248 484.921C317.598 479.243 316.876 473.567 316.021 467.916C315.396 463.778 314.765 459.656 314.286 455.498C314.126 454.114 314.043 452.463 312.812 454.187C308.537 460.176 304.723 466.672 299.944 472.274C295.537 477.439 296.473 469.462 296.702 466.376C297.137 460.498 298.088 454.339 299.518 448.617" stroke="white" stroke-width="2.69314" stroke-linecap="round" stroke-linejoin="round"/>
<path d="M293.327 326.958C291.631 332.867 288.303 339.204 287.493 345.253C287.228 347.232 293.111 343.122 293.132 343.112C303.148 337.943 313.161 332.767 323.345 327.931C324.971 327.159 326.794 324.92 328.332 325.855C329.74 326.712 326.331 328.484 325.138 329.618C318.148 336.262 309.731 342.197 303.952 349.989C301.83 352.851 312.167 346.003 312.818 345.61C318.208 342.353 324.254 338.537 330.483 337.079C332.918 336.509 329.152 340.795 329.114 340.841C325.979 344.671 320.938 348.102 318.489 352.389C317.675 353.813 327.444 350.761 328.332 350.378C333.207 348.271 345.96 338.775 342.151 342.463C339.919 344.625 329.657 356.309 337.719 356.152C342.084 356.066 346.902 355.312 351.017 353.816C352.628 353.23 350.831 353.232 350.234 353.232" stroke="white" stroke-width="2.69314" stroke-linecap="round" stroke-linejoin="round"/>
<path d="M309.036 89.9805C309.036 97.3889 308.985 104.801 309.167 112.208C309.258 115.959 309.177 126.908 310.474 123.387C311.539 120.499 311.132 116.268 311.488 113.287C312.311 106.396 313.688 99.4673 315.837 92.857C316.604 90.4977 317.41 89.4326 317.995 92.3994C319.682 100.963 318.97 110.073 319.074 118.746C319.142 124.46 319.442 130.163 319.597 135.874C319.73 140.802 321.213 135.934 322.245 133.847C325.383 127.504 328.253 121.052 331.073 114.562C331.965 112.509 333.221 109.565 334.212 107.436C334.696 106.395 335.667 103.348 335.945 104.461C336.368 106.152 334.393 110.632 334.049 112.175C332.991 116.909 331.888 121.677 331.073 126.46C330.654 128.924 331.93 126.698 332.643 125.937C337.96 120.262 343.79 115.065 349.22 109.495C352.834 105.788 356.324 101.92 360.108 98.3812C361.374 97.1967 358.111 104.824 357.819 105.671C356.973 108.124 349.869 134.66 351.868 134.926C353.227 135.107 356.179 130.814 356.773 130.056C359.692 126.326 361.916 122.236 363.77 117.896C364.473 116.25 364.882 115.616 363.966 117.961C362.699 121.206 360.986 124.257 359.748 127.506C359.493 128.175 358.541 130.241 360.108 129.239C363.297 127.198 366.105 124.374 368.871 121.818C370.096 120.686 372.53 116.886 372.663 118.55C372.844 120.81 370.439 124.639 369.688 126.689C369.401 127.472 367.512 131.098 368.02 132.115C368.128 132.33 372.356 128.211 372.533 128.029C374.724 125.774 376.703 123.386 378.353 120.707C380.038 117.968 379.495 120.219 379.039 122.08C378.584 123.94 376.542 128.181 379.072 128.814" stroke="white" stroke-width="2.69314" stroke-linecap="round" stroke-linejoin="round"/>
<path d="M501.894 54.5211C505.161 53.6172 508.489 52.9103 511.736 51.9421C512.328 51.7656 515.412 51.0453 513.584 50.1736C505.921 46.5185 496.636 46.836 488.594 44.2787C486.001 43.4541 483.211 39.9361 486.454 38.1259C489.726 36.2994 493.22 34.9148 496.534 33.1705C497.022 32.9137 500.33 31.9492 500.449 31.7705C501.196 30.6418 485.783 24.1456 485.136 23.8676C481.265 22.2032 477.197 20.714 473.574 18.5254C472.838 18.0802 472.579 17.9383 473.245 17.7148" stroke="white" stroke-width="2.69314" stroke-linecap="round" stroke-linejoin="round"/>
<path d="M431.117 42.8509C431.969 35.7131 435.757 29.3248 440.249 23.8524C441.487 22.3448 442.955 20.8842 443.685 19.0615" stroke="white" stroke-width="2.69314" stroke-linecap="round" stroke-linejoin="round"/>
<path d="M370.971 67.0889C363.696 68.4323 356.343 69.5946 349.159 71.3486C348.873 71.4184 346.051 72.0743 346.886 72.4751" stroke="white" stroke-width="2.69314" stroke-linecap="round" stroke-linejoin="round"/>
<path d="M357.955 155.065C362.296 154.905 366.629 154.721 370.972 154.616" stroke="white" stroke-width="2.69314" stroke-linecap="round" stroke-linejoin="round"/>
<path d="M421.242 101.202C423.411 107.653 427.451 113.216 429.77 119.605" stroke="white" stroke-width="2.69314" stroke-linecap="round" stroke-linejoin="round"/>
<path d="M449.521 180.522C447.231 169.905 445.176 158.995 440.835 148.979C440.24 147.607 439.813 145.591 438.85 147.659C433.931 158.219 435.132 171.552 435.226 182.912C435.23 183.327 435.241 184.572 435.226 184.157C435.136 181.635 435.05 179.189 434.755 176.663C433.733 167.931 431.966 159.143 429.171 150.796C428.195 147.882 427.567 150.327 426.887 152.315C425.324 156.886 424.792 161.594 423.636 166.232C422.948 168.994 423.413 160.529 422.966 157.717C422.888 157.228 421.928 150.036 421.105 150.099C419.974 150.186 418.173 155.792 417.854 156.522C416.782 158.974 415.684 163.8 413.411 165.51C412.983 165.832 412.087 158.845 412.046 158.614C411.288 154.345 410.785 149.623 409.316 145.518C408.509 143.262 407.572 146.507 408.87 147.809" stroke="white" stroke-width="2.69314" stroke-linecap="round" stroke-linejoin="round"/>
<path d="M428.424 401.936C432.972 394.557 438.027 387.217 441.89 379.493" stroke="white" stroke-width="2.69314" stroke-linecap="round" stroke-linejoin="round"/>
<path d="M472.861 415.851C475.614 418.662 478.285 421.534 481.636 423.581C483.139 424.499 484.539 425.469 485.878 426.623" stroke="white" stroke-width="2.69314" stroke-linecap="round" stroke-linejoin="round"/>
<path d="M420.795 460.287C421.965 465.801 426.292 469.149 427.977 474.202" stroke="white" stroke-width="2.69314" stroke-linecap="round" stroke-linejoin="round"/>
<path d="M484.259 357.499C478.614 358.743 472.937 359.82 467.356 361.339C462.512 362.658 467.546 363.074 469.852 364.032C471.81 364.846 473.772 365.647 475.733 366.451C476.408 366.728 479.126 367.389 479.514 368.272C479.827 368.982 469.953 374.567 468.962 375.229C468.617 375.46 462.591 379.406 463.007 380.141C463.444 380.913 472.2 379.084 472.793 379.044C478.252 378.674 483.732 378.389 489.201 378.246C491.433 378.188 495.164 378.146 497.455 378.146C498.488 378.146 501.436 377.871 500.544 378.396C496.556 380.743 490.395 381.313 485.939 382.086C483.1 382.579 473.878 383.987 481.195 386.076C483.915 386.853 486.661 387.511 489.399 388.221C489.529 388.255 494.177 389.62 493.6 390.166C490.889 392.731 484.786 393.566 483.073 397.198C482.353 398.724 501.479 401.095 502.644 401.263C506.727 401.851 510.997 402.215 515 403.282C517.845 404.041 515.746 404.59 514.061 404.978C512.177 405.412 501.193 406.503 501.483 409.716C501.54 410.35 505.925 410.72 506.499 410.913" stroke="white" stroke-width="2.69314" stroke-linecap="round" stroke-linejoin="round"/>
<path d="M362.668 254.262C362.668 258.972 358.974 264.361 354.14 264.361C349.306 264.361 348.08 258.972 348.08 254.262C348.08 249.552 353.345 243.938 358.179 243.938C363.013 243.938 362.668 249.552 362.668 254.262Z" fill="white"/>
<ellipse cx="370.074" cy="346.054" rx="7.63057" ry="6.95728" fill="white"/>
<path d="M465.68 260.098C464.558 262.342 461.614 260.547 457.152 260.547C452.69 260.547 449.521 264.56 449.521 260.098C449.521 255.636 455.607 250.672 460.07 250.672C464.532 250.672 468.892 253.674 465.68 260.098Z" fill="white"/>
<path d="M407.777 58.1123C416.036 58.9575 424.329 59.1313 432.615 59.5602C434.263 59.6455 446.133 58.718 439.97 62.2952C433.975 65.7752 424.098 69.02 419.674 74.6026C418.794 75.7126 420.022 75.8794 420.96 75.8896C426.614 75.9511 432.257 75.208 437.92 75.5678C443.607 75.9292 430.437 80.6843 436.634 84.8185C438.611 86.1372 441.01 86.2622 443.185 87.0306C443.761 87.2339 439.35 88.8633 438.805 89.0818C435.376 90.4544 438.47 90.1407 439.126 91.4548C439.547 92.2983 436.971 93.6218 438.483 96.0801C440.261 98.9714 441.37 101.071 438.161 102.998" stroke="white" stroke-width="2.69314" stroke-linecap="round" stroke-linejoin="round"/>
<path d="M424.384 257.248C423.205 255.835 414.617 244.112 413.592 249.291C413.196 251.29 413.611 257.849 413.592 257.41C413.402 252.988 407.845 260.775 407.197 261.489C403.494 265.572 405.064 257.507 403.519 254.905C401.693 251.83 399.939 260.522 398.123 260.318C395.522 260.026 395.742 248.718 391.847 254.663C389.623 258.058 387.48 261.662 384.613 264.559C381.991 267.208 380.922 263.55 380.176 261.287C378.53 256.297 379.243 256.88 375.459 259.429" stroke="white" stroke-width="2.69314" stroke-linecap="round" stroke-linejoin="round"/>
<path d="M415.408 417.392C424.585 417.679 433.78 417.834 442.959 417.532C443.111 417.527 450.623 416.596 448.782 417.863C439.95 423.946 428.176 424.276 419.819 431.038C417.924 432.572 421.944 432.447 422.335 432.45C428.594 432.495 434.829 432.086 441.081 431.892C444.306 431.792 437.581 433.819 436.911 434.088C436.598 434.214 430.424 436.7 431.329 437.469C433.128 438.999 438.027 438.427 440.185 438.55C441.06 438.599 446.353 438.122 443.613 439.735C441.391 441.042 438.288 441.893 436.515 443.83C435.595 444.835 437.95 446.442 438.496 447.072C438.976 447.624 440.972 449.765 440.081 450.645C438.557 452.151 435.386 451.813 433.5 452.701C433.312 452.789 435.306 453.318 435.602 453.468C436.202 453.771 435.666 454.898 435.567 455.35" stroke="white" stroke-width="2.69314" stroke-linecap="round" stroke-linejoin="round"/>
<path d="M480.47 342.665C476.111 342.712 471.774 342.711 467.422 342.389C464.209 342.152 460.829 341.89 457.737 340.886C456.971 340.637 456.05 340.217 455.556 339.542C454.882 338.625 456.622 338.16 457.163 337.944C462.778 335.702 468.899 334.965 474.659 333.171C476.423 332.621 478.188 331.958 479.832 331.107C481.078 330.462 480.356 330.374 479.364 330.239C474.225 329.539 469.086 328.813 463.974 327.932C460.232 327.287 455.902 326.496 452.671 324.355C452.131 323.996 451.545 323.651 451.032 323.254C450.432 322.788 452.795 322.748 452.82 322.746C456.469 322.497 460.247 323.09 463.868 322.64C464.139 322.606 463.467 322.242 463.208 322.153C461.868 321.693 460.488 321.362 459.089 321.137C452.993 320.159 446.827 319.689 440.879 317.92C439.944 317.642 439.813 317.453 440.666 317.009C442.081 316.274 443.666 315.851 445.179 315.38C448.04 314.489 450.928 313.668 453.736 312.617C455.45 311.976 457.499 311.249 458.993 310.151C460.204 309.261 457.188 308.226 456.833 308.077C453.792 306.8 450.61 305.975 447.371 305.367C446.387 305.183 445.636 305.267 445.317 304.245C444.946 303.056 445.16 302.138 445.413 300.943" stroke="white" stroke-width="2.69314" stroke-linecap="round" stroke-linejoin="round"/>
<path d="M416.306 382.187C415.296 376.192 416.306 370.226 416.306 364.232" stroke="white" stroke-width="2.69314" stroke-linecap="round" stroke-linejoin="round"/>
<circle cx="389.374" cy="441.885" r="8.52828" fill="white"/>
<circle cx="389.824" cy="81.0036" r="7.63057" fill="white"/>
<path d="M369.175 425.726C362.184 426.891 355.146 427.834 348.178 429.112C347.591 429.219 345.848 429.454 346.384 429.208" stroke="white" stroke-width="2.69314" stroke-linecap="round" stroke-linejoin="round"/>
<path d="M414.06 334.159C408.939 335.109 402.672 335.483 398.071 338.244C396.137 339.404 394.296 340.072 392.066 340.443" stroke="white" stroke-width="2.69314" stroke-linecap="round" stroke-linejoin="round"/>
<path d="M468.457 206.304C469.262 209.025 475.129 222.126 471.901 225.327C471.343 225.879 467.034 219.483 466.525 218.882C463.025 214.75 459.344 210.762 455.738 206.722C453.834 204.591 453.536 206.468 452.786 208.673C451.172 213.417 450.116 218.119 450.116 223.132C450.116 224.639 451.287 228.974 450.608 227.626C449.486 225.403 447.723 223.401 445.934 221.704C442.341 218.293 438.576 214.966 434.901 211.635C432.999 209.91 432.66 210.34 432.688 212.924C432.707 214.715 434.81 229.329 434.234 229.125C431.52 228.164 428.752 227.331 426.047 226.337C423.252 225.311 419.797 223.237 416.736 223.237C414.845 223.237 416.595 227.534 416.595 226.999" stroke="white" stroke-width="2.69314" stroke-linecap="round" stroke-linejoin="round"/>
<path d="M209.383 63.498C211.461 68.7223 214.54 73.481 216.379 78.7726C217.813 82.8995 218.759 87.0796 219.669 91.322C220.387 94.6689 220.604 98.225 220.604 101.651" stroke="white" stroke-width="2.69314" stroke-linecap="round" stroke-linejoin="round"/>
<path d="M195.051 78.7598C195.051 84.6337 194.825 90.5462 195.583 96.3747C196.059 100.024 196.648 103.444 196.648 107.147C196.648 107.544 196.819 113.123 197.713 111.076" stroke="white" stroke-width="2.69314" stroke-linecap="round" stroke-linejoin="round"/>
<path d="M209.383 162.247C214.761 167.488 220.592 172.235 225.946 177.496C227.695 179.215 229.389 181.578 231.377 182.894" stroke="white" stroke-width="2.69314" stroke-linecap="round" stroke-linejoin="round"/>
<path d="M307.233 261.893C307.233 272.03 306.02 282.063 305.953 292.177C305.945 293.43 305.594 303.645 306.593 303.171" stroke="white" stroke-width="2.69314" stroke-linecap="round" stroke-linejoin="round"/>
<path d="M188.734 301.393C193.073 305.859 199.523 311.032 201.452 317.295C201.742 318.236 201.573 318.235 202.2 317.295" stroke="white" stroke-width="2.69314" stroke-linecap="round" stroke-linejoin="round"/>
<path d="M212.525 313.512C216.628 317.52 221.523 320.691 225.542 324.733" stroke="white" stroke-width="2.69314" stroke-linecap="round" stroke-linejoin="round"/>
<path d="M256.064 445.476C257.058 445.982 263.776 450.862 263.694 450.862" stroke="white" stroke-width="2.69314" stroke-linecap="round" stroke-linejoin="round"/>
<path d="M211.178 427.521C215.919 438.96 223.658 450.943 224.552 463.576C224.735 466.159 224.586 461.303 224.586 460.74" stroke="white" stroke-width="2.69314" stroke-linecap="round" stroke-linejoin="round"/>
<path d="M197.264 441.885C194.976 451.184 194.767 461.768 197.264 471.06" stroke="white" stroke-width="2.69314" stroke-linecap="round" stroke-linejoin="round"/>
<path d="M406.007 142.944C404.91 146.579 400.099 157.391 407.839 155.269C413.381 153.75 418.639 149.718 419.223 143.695C419.755 138.199 417.557 130.219 413.606 126.346C405.356 118.256 399.396 128.789 396.634 136.01C393.344 144.613 389.489 156.578 394.836 165.136C400.842 174.747 413.221 173.531 420.899 166.583C430.292 158.085 429.246 145.347 430.372 133.785C430.598 131.468 430.215 125.977 432.605 124.588" stroke="white" stroke-width="2.69314" stroke-linecap="round" stroke-linejoin="round"/>
<path d="M229.365 250.426C236.643 248.466 244.442 246.832 252.01 246.633C255.325 246.545 247.337 252.371 246.784 252.776C242.057 256.241 237.085 259.483 232.112 262.579C230.823 263.381 227.122 264.952 228.561 265.433C233.27 267.006 240.541 265.833 245.444 266.003C247.954 266.091 251.796 265.647 254.255 266.742C254.7 266.94 249.856 269.352 249.531 269.495C247.977 270.176 239.29 272.354 242.698 274.631C244.853 276.071 250.79 277.56 247.789 280.036C243.843 283.294 253.499 286.504 255.159 287.355C258.974 289.31 256.822 289.285 258.308 291.518" stroke="white" stroke-width="2.69314" stroke-linecap="round" stroke-linejoin="round"/>
<path d="M376.142 499.338C376.57 492.003 376.972 484.664 377.19 477.32C377.236 475.749 377.31 473.194 377.19 471.487C377.189 471.485 377.055 468.466 376.338 468.801C374.923 469.462 373.577 473.101 372.867 474.371C370.912 477.869 368.942 481.311 366.842 484.725C365.283 487.259 362.349 495.552 362.618 492.588C363.166 486.562 363.829 480.135 363.044 474.109C362.504 469.965 355.001 482.612 354.301 483.742C352.54 486.581 350.858 489.573 348.865 492.261C347.115 494.621 347.737 487.573 347.719 487.149C347.473 481.497 347.171 475.836 346.278 470.242C345.807 467.288 345.607 459.582 343.396 457.169C343.122 456.87 332.766 477.618 332.165 479.253C331.48 481.117 330.642 486.832 330.233 484.888C329.438 481.108 330.477 476.415 330.626 472.601C330.665 471.601 331.757 458.614 329.643 462.936C325.881 470.629 322.472 478.423 318.969 486.232C318.284 487.758 318.286 485.248 318.248 484.921C317.598 479.243 316.876 473.567 316.021 467.916C315.396 463.778 314.765 459.656 314.286 455.498C314.126 454.114 314.043 452.463 312.812 454.187C308.537 460.176 304.723 466.672 299.944 472.274C295.537 477.439 296.473 469.462 296.702 466.376C297.137 460.498 298.088 454.339 299.518 448.617" stroke="white" stroke-width="2.69314" stroke-linecap="round" stroke-linejoin="round"/>
<path d="M246.666 371.414C238.479 371.963 230.116 372.166 221.975 373.32C218.109 373.868 221.517 374.994 223.412 375.554C233.531 378.548 243.735 381.321 253.982 383.834C258.435 384.927 263.01 385.81 267.373 387.251C267.916 387.431 269.033 388.409 268.483 388.566C264.729 389.637 260.119 389.705 256.333 390.044C248.157 390.778 239.97 391.229 231.773 391.654C224.428 392.035 217.053 392.281 209.727 392.969C208.57 393.077 205.603 393.004 206.363 393.889C209.099 397.075 217.01 397.976 220.734 399.014C221.406 399.202 230.24 401.633 228.768 402.037C227.626 402.351 224.944 402.582 227.527 403.746C234.241 406.772 241.925 407.298 249.083 408.543C249.961 408.696 258.347 409.205 253.917 410.58C250.813 411.544 247.311 411.477 244.314 412.683C243.251 413.111 235.179 415.987 235.431 416.495C236.305 418.253 240.354 419.134 241.963 419.583C243.025 419.88 250.076 420.976 247.254 421.686" stroke="white" stroke-width="2.69314" stroke-linecap="round" stroke-linejoin="round"/>
<path d="M293.327 326.958C291.631 332.867 288.303 339.204 287.493 345.253C287.228 347.232 293.111 343.122 293.132 343.112C303.148 337.943 313.161 332.767 323.345 327.931C324.971 327.159 326.794 324.92 328.332 325.855C329.74 326.712 326.331 328.484 325.138 329.618C318.148 336.262 309.731 342.197 303.952 349.989C301.83 352.851 312.167 346.003 312.818 345.61C318.208 342.353 324.254 338.537 330.483 337.079C332.918 336.509 329.152 340.795 329.114 340.841C325.979 344.671 320.938 348.102 318.489 352.389C317.675 353.813 327.444 350.761 328.332 350.378C333.207 348.271 345.96 338.775 342.151 342.463C339.919 344.625 329.657 356.309 337.719 356.152C342.084 356.066 346.902 355.312 351.017 353.816C352.628 353.23 350.831 353.232 350.234 353.232" stroke="white" stroke-width="2.69314" stroke-linecap="round" stroke-linejoin="round"/>
<path d="M163.645 300.943C152.528 303.402 141.356 305.495 130.191 307.715C125.397 308.668 120.457 309.461 115.769 310.888C112.613 311.849 117.245 311.566 117.601 311.575C121.696 311.683 160.636 313.081 160.636 316.547C160.636 317.637 155.402 318.409 155.011 318.477C144.726 320.278 133.353 320.061 123.618 324.235C121.571 325.112 123.793 325.649 124.795 325.936C130.162 327.47 135.727 327.749 141.277 327.898C149.535 328.121 157.804 328.029 166.065 328.029C167.038 328.029 171.79 327.355 172.801 328.029C173.531 328.516 171.094 328.442 170.25 328.683C166.716 329.694 163.205 330.545 159.59 331.235C157.977 331.543 153.161 331.646 151.774 333.034C150.45 334.358 155.267 334.441 157.104 334.801C162.143 335.788 167.188 336.25 172.311 336.534C172.36 336.537 180.567 336.685 179.341 337.32C177.492 338.276 167.882 340.924 170.904 344.451C173.175 347.1 184.011 346.255 180.846 347.722C176.967 349.52 171.095 348.865 167.7 351.582C166.964 352.171 175.536 353.72 176.398 353.807C179.353 354.102 181.549 354.625 184.247 355.704" stroke="white" stroke-width="2.69314" stroke-linecap="round" stroke-linejoin="round"/>
<path d="M309.036 89.9805C309.036 97.3889 308.985 104.801 309.167 112.208C309.258 115.959 309.177 126.908 310.474 123.387C311.539 120.499 311.132 116.268 311.488 113.287C312.311 106.396 313.688 99.4673 315.837 92.857C316.604 90.4977 317.41 89.4326 317.995 92.3994C319.682 100.963 318.97 110.073 319.074 118.746C319.142 124.46 319.442 130.163 319.597 135.874C319.73 140.802 321.213 135.934 322.245 133.847C325.383 127.504 328.253 121.052 331.073 114.562C331.965 112.509 333.221 109.565 334.212 107.436C334.696 106.395 335.667 103.348 335.945 104.461C336.368 106.152 334.393 110.632 334.049 112.175C332.991 116.909 331.888 121.677 331.073 126.46C330.654 128.924 331.93 126.698 332.643 125.937C337.96 120.262 343.79 115.065 349.22 109.495C352.834 105.788 356.324 101.92 360.108 98.3812C361.374 97.1967 358.111 104.824 357.819 105.671C356.973 108.124 349.869 134.66 351.868 134.926C353.227 135.107 356.179 130.814 356.773 130.056C359.692 126.326 361.916 122.236 363.77 117.896C364.473 116.25 364.882 115.616 363.966 117.961C362.699 121.206 360.986 124.257 359.748 127.506C359.493 128.175 358.541 130.241 360.108 129.239C363.297 127.198 366.105 124.374 368.871 121.818C370.096 120.686 372.53 116.886 372.663 118.55C372.844 120.81 370.439 124.639 369.688 126.689C369.401 127.472 367.512 131.098 368.02 132.115C368.128 132.33 372.356 128.211 372.533 128.029C374.724 125.774 376.703 123.386 378.353 120.707C380.038 117.968 379.495 120.219 379.039 122.08C378.584 123.94 376.542 128.181 379.072 128.814" stroke="white" stroke-width="2.69314" stroke-linecap="round" stroke-linejoin="round"/>
<path d="M-42.1916 46.4469C-45.8958 52.8628 -49.6771 59.2389 -53.1106 65.8092C-54.8493 69.1362 -60.4449 78.5485 -56.7524 76.6152C-53.7225 75.0289 -52.2137 71.0154 -50.1925 68.7395C-45.5213 63.4794 -40.0066 58.6629 -33.501 54.786C-31.179 53.4023 -29.4454 53.1733 -30.0582 56.2453C-31.8272 65.1126 -37.4428 72.3896 -41.6244 79.9897C-44.3794 84.9968 -46.7839 90.1945 -49.4095 95.2731C-51.6751 99.6556 -47.0317 96.7145 -44.4517 95.7953C-36.6059 93 -29.1057 89.8805 -21.6608 86.6844C-19.3058 85.6734 -15.9631 84.2039 -13.4229 83.2122C-12.1817 82.7275 -9.21273 80.9228 -9.35473 82.1262C-9.57042 83.9541 -14.7511 86.1361 -16.0363 87.1763C-19.9777 90.3665 -24.0056 93.5467 -27.61 96.9886C-29.4667 98.7618 -26.4537 97.9311 -25.011 97.8852C-14.2538 97.5434 -2.97328 98.0551 7.89907 97.9003C15.135 97.7973 22.2677 97.4488 29.6719 97.6377C32.1505 97.701 23.4763 101.501 22.6185 101.982C20.1313 103.38 -3.71582 120.252 -0.872068 122.202C1.06034 123.526 7.60368 122.347 8.86764 122.201C15.0805 121.481 20.4374 119.852 25.3686 117.687C27.2384 116.866 28.1652 116.669 25.6281 117.912C22.1186 119.632 18.0428 120.802 14.5738 122.551C13.8595 122.912 11.4076 123.882 14.2433 124.361C20.0132 125.336 25.6071 125.305 31.004 125.47C33.3959 125.543 38.9207 124.345 38.2872 125.9C37.4263 128.013 31.9294 129.261 29.7862 130.391C28.9676 130.822 24.3406 132.338 24.5896 133.656C24.6422 133.934 32.9988 134.003 33.3527 133.997C37.7445 133.928 41.8856 133.563 45.6817 132.661C49.5615 131.738 47.6268 133.221 46.0178 134.44C44.4091 135.659 39.2482 137.577 42.6997 140.3" stroke="white" stroke-width="2.69314" stroke-linecap="round" stroke-linejoin="round"/>
<path d="M168.536 148.389C167.517 146.842 153.826 127.666 152.074 128.616C150.356 129.548 150.353 137.704 150.296 139.092C150.146 142.782 150.253 146.472 150.461 150.157C150.566 152.016 151.491 155.859 150.658 157.654C150.13 158.792 148.985 155.778 148.189 154.806C145.547 151.576 142.728 148.494 139.991 145.345C137.936 142.979 135.918 140.61 134.032 138.11C133.872 137.898 131.931 134.679 131.793 136.604C131.401 142.062 131.976 147.746 132.517 153.169C133.177 159.773 133.302 167.617 135.579 173.956C136.237 175.788 135.257 170.072 134.888 168.162C134.363 165.447 133.165 158.856 130.345 157.326C128.338 156.238 124.728 175.856 124.682 177.263C124.468 183.787 122.841 168.046 119.974 169.472C117.948 170.478 118.685 175.425 119.941 176.674" stroke="white" stroke-width="2.69314" stroke-linecap="round" stroke-linejoin="round"/>
<path d="M246.761 63.9959C243.56 63.4572 240.367 62.8788 237.167 62.3351C232.171 61.4863 237.981 62.9638 238.711 63.1492C242.145 64.0209 245.614 64.9479 249.094 65.6242C251.954 66.1801 250.179 64.6473 248.996 63.6703C244.43 59.899 237.685 58.8993 233.421 54.9753C232.125 53.7822 236.82 53.9163 238.58 53.7379C241.332 53.4589 244.869 53.5677 247.386 52.2073C248.374 51.6728 248.62 50.928 247.681 50.1882C247.521 50.062 245.312 49.0298 245.776 49.0159C247.592 48.9613 258.754 50.5124 257.801 47.7133C256.572 44.1008 252.365 41.333 249.259 39.5719C241.892 35.3959 233.785 32.717 225.798 29.9977C220.045 28.0388 220.292 27.9521 222.513 23.5498" stroke="white" stroke-width="2.69314" stroke-linecap="round" stroke-linejoin="round"/>
<path d="M234.07 322.488C241.816 328.347 252.401 334.318 257.737 342.72C258.294 343.597 259.441 346.727 260.104 346.727" stroke="white" stroke-width="2.69314" stroke-linecap="round" stroke-linejoin="round"/>
<ellipse cx="171.454" cy="445.027" rx="6.50842" ry="6.73285" fill="white"/>
<ellipse cx="287.932" cy="285.009" rx="9.42599" ry="9.20156" fill="white"/>
<ellipse cx="169.659" cy="82.1258" rx="9.20156" ry="8.75271" fill="white"/>
<path d="M309.926 169.877C318.856 170.6 327.895 171.224 336.857 171.224" stroke="white" stroke-width="2.69314" stroke-linecap="round" stroke-linejoin="round"/>
<path d="M292.014 38.6497C298.609 39.7009 305.207 40.7266 311.91 40.5956C314.147 40.5519 315.348 40.2019 316.883 38.6723C320.003 35.5642 311.363 34.2996 309.911 33.9432C304.973 32.731 299.912 32.1404 294.876 31.4994C293.529 31.328 292.177 31.195 290.833 31.0016C289.789 30.8514 290.541 30.6541 291.129 30.5038C293.937 29.7865 297.006 29.8529 299.872 29.5988C300.564 29.5374 309.672 28.4203 309.434 28.128C308.018 26.3856 304.756 25.2648 302.78 24.4397C299.632 23.1258 296.357 21.9432 293.104 20.9099C292.351 20.6706 291.935 20.5247 293.15 20.4121C296.399 20.1109 299.75 20.3215 303.007 20.3215C303.886 20.3215 311.416 21.0188 311.864 19.9595C312.503 18.4474 302.074 15.2434 301.508 15.072C296.758 13.6346 291.959 12.2705 287.154 11.0217C286.472 10.8443 288.941 11.3228 289.153 11.3611" stroke="white" stroke-width="2.69314" stroke-linecap="round" stroke-linejoin="round"/>
<path d="M138.608 55.8677C142.095 54.6296 146.667 53.7207 149.749 51.5386C151.083 50.5941 148.559 49.8059 148.073 49.6247C140.192 46.6828 132.322 43.8322 124.615 40.4198C121.675 39.1183 117.922 37.945 115.331 35.954C114.178 35.068 118.138 35.106 119.588 35.0426C123.93 34.8527 128.286 34.9658 132.63 34.9515C133.83 34.9475 140.301 35.7114 141.258 34.2679C142.937 31.7334 127.716 25.0444 126.494 24.5161C124.323 23.5776 123.857 23.4612 121.829 22.7617C121.296 22.5778 120.047 22.5103 120.312 22.0098C120.848 20.9998 124.39 20.6992 125.407 20.4149C130.304 19.0462 127.068 17.247 123.799 16.1086C121.302 15.2389 118.807 14.7087 116.214 14.2631C113.908 13.8669 119.425 14.4428 119.452 14.4454" stroke="white" stroke-width="2.69314" stroke-linecap="round" stroke-linejoin="round"/>
<path d="M113.775 56.7656C117.56 60.1093 120.553 63.9807 124.099 67.5382" stroke="white" stroke-width="2.69314" stroke-linecap="round" stroke-linejoin="round"/>
<path d="M221.502 113.771C219.309 119.102 218.313 124.672 216.976 130.249C216.886 130.624 216.564 134.182 216.564 132.721" stroke="white" stroke-width="2.69314" stroke-linecap="round" stroke-linejoin="round"/>
<path d="M175.719 111.975C176.103 117.696 177.665 123.276 178.888 128.86C178.929 129.043 179.31 132.219 179.31 130.996" stroke="white" stroke-width="2.69314" stroke-linecap="round" stroke-linejoin="round"/>
<path d="M233.172 134.418C240.044 128.082 246.946 121.169 255.102 116.44C255.817 116.026 255.945 115.402 256.512 115.117" stroke="white" stroke-width="2.69314" stroke-linecap="round" stroke-linejoin="round"/>
<path d="M277.608 95.8154C276.372 103.881 276.316 112.071 275.095 120.133C274.981 120.886 273.531 128.133 273.569 128.133" stroke="white" stroke-width="2.69314" stroke-linecap="round" stroke-linejoin="round"/>
<path d="M274.018 485.872C275.005 476.74 277.856 467.573 277.856 458.366C277.856 456.628 279.571 453.663 277.43 455.459" stroke="white" stroke-width="2.69314" stroke-linecap="round" stroke-linejoin="round"/>
<path d="M183.798 491.259C181.174 483.924 178.885 476.39 175.719 469.265" stroke="white" stroke-width="2.69314" stroke-linecap="round" stroke-linejoin="round"/>
<path d="M112.43 415.402C117.911 419.358 124.304 422.66 129.037 427.521" stroke="white" stroke-width="2.69314" stroke-linecap="round" stroke-linejoin="round"/>
<path d="M217.463 282.092C222.915 287.614 227.927 293.832 234.968 297.353" stroke="white" stroke-width="2.69314" stroke-linecap="round" stroke-linejoin="round"/>
<path d="M292.422 369.17C305.896 373.706 319.384 378.114 333.078 381.937C334.432 382.315 338.397 383.144 337.022 383.434C329.071 385.107 320.673 385.475 312.613 386.251C307.625 386.732 301.757 386.512 296.936 388.022C295.727 388.401 301.841 390.076 302.195 390.166C306.924 391.375 311.751 392.119 316.483 393.308C316.797 393.387 319.956 393.792 318.368 394.555C316.579 395.416 314.47 395.699 312.564 396.201C311.31 396.531 308.645 397.053 311.224 397.872C312.11 398.153 314.854 398.219 313.953 398.445C311.375 399.093 308.468 399.052 306.015 400.141C305.092 400.551 305.824 401.93 304.924 402.834C304.149 403.613 302.406 404.67 304.031 405.078" stroke="white" stroke-width="2.69314" stroke-linecap="round" stroke-linejoin="round"/>
<path d="M130.035 356.152C123.404 358.488 116.776 359.731 109.862 360.89C107.222 361.333 104.553 361.686 101.932 362.237C100.117 362.618 102.219 363.054 102.824 363.234C109.839 365.323 117.091 366.425 124.038 368.77C125.901 369.399 127.865 369.386 125.624 370.616C121.156 373.068 116.29 374.284 111.473 375.852C109.31 376.557 105.116 377.72 109.788 378.196C118.95 379.13 128.066 380.525 137.173 381.887C137.932 382 140.061 382.063 139.403 382.46C137.719 383.477 135.327 383.713 133.455 384.181C131.018 384.79 124.261 385.08 122.551 387.123C121.688 388.155 125.8 389.148 126.12 389.268C127.095 389.634 132.92 390.442 130.729 392.161C129.615 393.035 118.293 397.428 118.958 398.32C119.986 399.699 123.709 400.022 125.153 400.34C127.583 400.875 130.065 401.163 132.489 401.711C134.845 402.245 130.806 403.337 130.135 403.731C128.372 404.766 139.185 408.087 140.147 408.394C141.532 408.837 145.515 409.164 146.095 410.913" stroke="white" stroke-width="2.69314" stroke-linecap="round" stroke-linejoin="round"/>
<path d="M140.258 363.748C145.666 363.748 151.68 364.12 156.866 362.437" stroke="white" stroke-width="2.69314" stroke-linecap="round" stroke-linejoin="round"/>
<path d="M158.213 270.464C152.364 268.345 146.822 265.984 141.688 262.415C141.19 262.069 139.063 259.887 139.094 261.719C139.202 268.137 143.187 272.238 147.344 276.526C148.294 277.506 146.467 276.515 146.183 276.402C142.605 274.979 139.174 273.335 135.833 271.408C132.501 269.487 129.267 267.208 125.731 265.669C123.957 264.898 125.39 266.918 125.755 267.682C126.266 268.75 132.239 276.821 131.486 277.172C129.532 278.083 126.326 276.871 124.471 276.427C120.107 275.382 115.914 273.854 111.626 272.551C105.95 270.826 114.748 277.635 116.023 278.464C116.433 278.73 121.744 282.091 119.531 282.091" stroke="white" stroke-width="2.69314" stroke-linecap="round" stroke-linejoin="round"/>
<path d="M349.157 208.567C346.278 204.438 343.122 200.69 339.65 197.03C338.031 195.325 331.838 187.383 328.624 187.383C327.773 187.383 328.826 189.104 329.197 189.869C330.982 193.558 333.502 196.937 335.867 200.263C340.831 207.244 345.33 214.063 348.41 222.094C348.411 222.096 350.182 227.161 349.829 226.868C347.905 225.266 346.143 223.369 344.329 221.646C339.77 217.316 335.296 213.123 329.993 209.711C327.719 208.248 327.653 208.576 327.653 211.054C327.653 214.558 327.799 218.095 327.653 221.596C327.607 222.718 326.608 220.276 326.558 220.204C324.525 217.221 321.56 214.735 318.893 212.347C318.095 211.633 309.894 205.632 310.356 207.249C311.993 212.972 317.704 216.822 319.938 222.243C320.225 222.938 313.618 220.128 313.293 220.005C311.596 219.361 301.519 215.122 300.127 217.146C298.509 219.497 301.087 224.67 301.869 226.967C302.548 228.962 304.391 232.376 302.989 234.476C302.337 235.453 301.458 236.163 301.421 237.46C301.399 238.223 302.02 238.603 301.222 239.001" stroke="white" stroke-width="2.69314" stroke-linecap="round" stroke-linejoin="round"/>
<path d="M200.255 183.343C192.717 184.024 185.117 184.026 177.591 184.834C174.104 185.208 177.964 185.752 179.23 186.021C184.781 187.202 190.522 187.169 196.089 188.258C196.886 188.414 193.718 189.749 193.561 189.804C190.07 191.039 186.058 191.677 182.924 193.725C181.078 194.932 187.706 195.248 188.09 195.272C190.697 195.436 193.325 195.463 195.922 195.769C196.604 195.849 197.776 195.877 196.7 196.597C194.777 197.883 192.631 198.834 190.589 199.911C190.26 200.084 187.96 200.924 189.006 201.568C194.342 204.851 201.316 205.664 207.142 207.794C207.873 208.061 214.188 209.952 212.767 211.702C211.181 213.654 208.288 213.81 206.045 214.297C205.412 214.435 200.657 215.621 202.963 217.1C203.665 217.551 209.947 218.602 209.906 218.784C209.667 219.855 204.809 220.834 203.81 221.242C202.726 221.684 201.409 222.29 202.032 223.617C202.667 224.97 203.611 226.384 204.754 227.331" stroke="white" stroke-width="2.69314" stroke-linecap="round" stroke-linejoin="round"/>
<path d="M199.284 264.616C194.136 265.995 188.649 269.764 187.269 264.616C185.89 259.467 190.994 262.375 196.142 260.996C201.29 259.616 204.533 254.472 205.912 259.62C207.292 264.768 204.432 263.236 199.284 264.616Z" fill="white"/>
<circle cx="267.061" cy="327.65" r="8.75271" fill="white"/>
<circle cx="292.87" cy="425.726" r="8.07942" fill="white"/>
<path d="M72.0334 128.582C72.0334 132.548 68.818 135.764 64.8517 135.764C60.8853 135.764 60.1387 132.548 60.1387 128.582C60.1387 124.616 60.8853 121.4 64.8517 121.4C68.818 121.4 72.0334 124.616 72.0334 128.582Z" fill="white"/>
<ellipse cx="292.646" cy="67.0889" rx="7.40614" ry="7.18171" fill="white"/>
<path d="M199.058 36.4915C198.089 37.6274 189.903 48.7556 187.138 47.1887C186.1 46.6003 195.051 30.36 195.815 28.2876C197.989 22.3856 189.495 28.7195 187.665 29.6147C185.937 30.4603 176.213 34.1558 176.354 33.9982C178.587 31.5058 182.765 28.9636 183.935 25.7139C184.228 24.9002 173.779 27.5245 172.381 27.805C167.912 28.7016 169.451 26.4176 171.002 23.3412C173.182 19.0165 173.677 16.3013 172.056 11.8799" stroke="white" stroke-width="2.69314" stroke-linecap="round" stroke-linejoin="round"/>
<path d="M146.093 81.4521C146.023 85.3605 145.195 89.2333 145.195 93.1224" stroke="white" stroke-width="2.69314" stroke-linecap="round" stroke-linejoin="round"/>
<path d="M302.295 157.31C297.351 163.741 293.021 170.631 288.014 177.003C287.072 178.202 286.157 179.229 285.688 180.65" stroke="white" stroke-width="2.69314" stroke-linecap="round" stroke-linejoin="round"/>
<path d="M199.508 399.475C196.979 402.083 193.704 404.236 190.585 406.069C189.563 406.669 189.244 406.579 189.29 405.276C189.345 403.726 189.533 402.184 189.618 400.637C189.831 396.754 189.713 392.855 189.571 388.972C189.464 386.068 189.152 383.246 188.697 380.384C188.638 380.01 187.241 382.28 187.153 382.409C185.559 384.756 183.899 387.038 182.363 389.427C181.862 390.207 181.031 391.678 181.615 389.741C181.931 388.69 182.369 387.682 182.613 386.609C182.99 384.955 183.066 383.214 183.066 381.522C183.066 379.987 181.864 381.24 181.217 381.781C178.241 384.272 175.316 386.609 171.911 388.501C171.59 388.679 168.502 390.442 168.432 389.246C168.3 386.977 168.864 384.655 168.9 382.378C168.906 382.025 168.958 381.593 168.869 381.247C168.734 380.721 167.268 381.848 167.153 381.915C166.218 382.461 165.278 383.014 164.283 383.445C163.626 383.73 162.429 384.345 161.662 384.152C160.483 383.855 163.059 376.513 163.425 375.454" stroke="white" stroke-width="2.69314" stroke-linecap="round" stroke-linejoin="round"/>
<path d="M146.991 439.191C146.726 440.483 144.98 460.17 145.92 459.366" stroke="white" stroke-width="2.69314" stroke-linecap="round" stroke-linejoin="round"/>
<path d="M109.287 243.04C113.232 241.884 116.95 240.398 120.545 238.416C121.522 237.878 123.012 237.247 123.651 236.308" stroke="white" stroke-width="2.69314" stroke-linecap="round" stroke-linejoin="round"/>
<path d="M232.273 198.101C239.547 194.903 246.917 192.06 254.52 189.757C254.763 189.683 259.6 187.7 257.452 189.446C251.45 194.323 244.29 197.34 238.26 202.076C237.667 202.542 236.917 203.321 238.158 203.464C241.631 203.862 245.4 203.218 248.84 202.78C251.956 202.384 255.032 201.825 258.128 201.331C260.003 201.032 254.681 202.946 252.9 203.609C249.491 204.877 247.109 205.745 243.673 207.128C240.534 208.393 236.423 209.622 233.647 211.725C231.567 213.3 243.432 214.02 244.206 214.044C246.158 214.104 248.194 214.097 250.152 214.044C250.718 214.028 253.608 213.528 254.212 214.002C254.509 214.235 253.561 214.39 253.207 214.52C252.043 214.948 250.899 215.324 249.906 216.114C242.952 221.655 257.016 223.722 260.199 224.024C262.778 224.268 262.067 223.997 265.489 224.189" stroke="white" stroke-width="2.69314" stroke-linecap="round" stroke-linejoin="round"/>
<path d="M258.309 83.6963C260.492 85.4779 262.635 86.7318 264.144 89.0826" stroke="white" stroke-width="2.69314" stroke-linecap="round" stroke-linejoin="round"/>
</g>
</svg>
