<svg width="36" height="36" viewBox="0 0 36 36" fill="none" xmlns="http://www.w3.org/2000/svg">
<path fill-rule="evenodd" clip-rule="evenodd" d="M24.9444 13.689C24.9444 19.9052 19.9052 24.9444 13.689 24.9444C7.47282 24.9444 2.4336 19.9052 2.4336 13.689C2.4336 7.47282 7.47282 2.4336 13.689 2.4336C19.9052 2.4336 24.9444 7.47282 24.9444 13.689ZM22.0799 24.5056C19.7624 26.306 16.8509 27.378 13.689 27.378C6.12878 27.378 0 21.2492 0 13.689C0 6.12878 6.12878 0 13.689 0C21.2492 0 27.378 6.12878 27.378 13.689C27.378 17.2125 26.0468 20.4252 23.8598 22.8513L23.876 22.8672L34.9316 33.9228C35.4067 34.398 35.4067 35.1684 34.9316 35.6436C34.4564 36.1188 33.6859 36.1188 33.2107 35.6436L22.1552 24.588C22.1286 24.5614 22.1035 24.5339 22.0799 24.5056ZM13.993 6.69239C14.3291 6.69239 14.6014 6.96478 14.6014 7.30079V12.7764H20.0774C20.4134 12.7764 20.6858 13.0488 20.6858 13.3848C20.6858 13.7208 20.4134 13.9932 20.0774 13.9932H14.6014V19.4688C14.6014 19.8048 14.3291 20.0772 13.993 20.0772C13.657 20.0772 13.3846 19.8048 13.3846 19.4688V13.9932H7.90943C7.57342 13.9932 7.30103 13.7208 7.30103 13.3848C7.30103 13.0488 7.57342 12.7764 7.90943 12.7764H13.3846V7.30079C13.3846 6.96478 13.657 6.69239 13.993 6.69239Z" fill="white" fill-opacity="0.72"/>
</svg>
