<svg width="40" height="40" viewBox="0 0 40 40" fill="none" xmlns="http://www.w3.org/2000/svg">
<circle cx="20" cy="20" r="20" fill="#C4C4C4" fill-opacity="0.1"/>
<g opacity="0.5">
<path d="M27.3425 23.0983C26.215 23.0983 25.1242 22.915 24.1067 22.585C23.7858 22.475 23.4283 22.5575 23.1808 22.805L21.7417 24.6108C19.1475 23.3733 16.7183 21.0358 15.4258 18.35L17.2133 16.8283C17.4608 16.5717 17.5342 16.2142 17.4333 15.8933C17.0942 14.8758 16.92 13.785 16.92 12.6575C16.92 12.1625 16.5075 11.75 16.0125 11.75H12.8408C12.3458 11.75 11.75 11.97 11.75 12.6575C11.75 21.1733 18.8358 28.25 27.3425 28.25C27.9933 28.25 28.25 27.6725 28.25 27.1683V24.0058C28.25 23.5108 27.8375 23.0983 27.3425 23.0983Z" fill="black"/>
</g>
</svg>
