<svg width="17" height="10" viewBox="0 0 17 10" fill="none" xmlns="http://www.w3.org/2000/svg">
<path opacity="0.5" fill-rule="evenodd" clip-rule="evenodd" d="M2.47326 0H0.631579C0.105263 0 0 0.247579 0 0.521264C0 1.00884 0.624 3.42905 2.90779 6.62905C4.42947 8.81516 6.57432 10 8.52547 10C9.69684 10 9.84168 9.73642 9.84168 9.28421V7.632C9.84168 7.10568 9.95284 7.00042 10.3234 7.00042C10.5971 7.00042 11.0644 7.13684 12.1583 8.19032C13.4072 9.44 13.6126 10 14.3149 10H16.1575C16.6838 10 16.9474 9.73642 16.7949 9.21684C16.629 8.69979 16.0328 7.94863 15.2413 7.05853C14.8118 6.55158 14.1684 6.00505 13.9731 5.73137C13.6994 5.38021 13.7777 5.22442 13.9731 4.912C13.9731 4.912 16.2173 1.75074 16.4514 0.677053C16.5693 0.287158 16.4514 0 15.8939 0H14.0522C13.584 0 13.3676 0.247579 13.2505 0.521264C13.2505 0.521264 12.3141 2.80421 10.9869 4.28716C10.5575 4.71663 10.3621 4.85389 10.128 4.85389C10.0109 4.85389 9.84168 4.71663 9.84168 4.32674V0.677053C9.84168 0.208842 9.7061 0 9.31537 0H6.42021C6.128 0 5.952 0.217263 5.952 0.423579C5.952 0.867369 6.61558 0.970105 6.68379 2.21895V4.93137C6.68379 5.52674 6.57684 5.63453 6.34189 5.63453C5.71789 5.63453 4.19874 3.34063 3.29768 0.716631C3.12084 0.206316 2.944 0 2.47326 0Z" fill="black"/>
</svg>
