<svg width="40" height="40" viewBox="0 0 40 40" fill="none" xmlns="http://www.w3.org/2000/svg">
<circle cx="20" cy="20" r="20" fill="#C4C4C4" fill-opacity="0.1"/>
<g opacity="0.5">
<path d="M19.9895 10.833C14.9295 10.833 10.832 14.9397 10.832 19.9997C10.832 25.0597 14.9295 29.1663 19.9895 29.1663C25.0587 29.1663 29.1654 25.0597 29.1654 19.9997C29.1654 14.9397 25.0587 10.833 19.9895 10.833ZM19.9987 27.333C15.947 27.333 12.6654 24.0513 12.6654 19.9997C12.6654 15.948 15.947 12.6663 19.9987 12.6663C24.0504 12.6663 27.332 15.948 27.332 19.9997C27.332 24.0513 24.0504 27.333 19.9987 27.333Z" fill="black"/>
<path d="M20.457 15.417H19.082V20.917L23.8945 23.8045L24.582 22.677L20.457 20.2295V15.417Z" fill="black"/>
</g>
</svg>
