<svg width="118" height="92" viewBox="0 0 118 92" fill="none" xmlns="http://www.w3.org/2000/svg">
<path d="M61.923 63.1404H47.7721V27.1482L31.762 53.4135H30.161L14.1509 27.1482V63.1404H0V1.24414H14.1509L30.9615 28.7479L47.7721 1.24414H61.923V63.1404Z" fill="white"/>
<path d="M74.9131 52.8918L95.7005 31.3223C99.3157 27.6069 101.975 23.9948 101.975 20.3569C101.975 16.461 99.4964 13.8035 95.339 13.8035C91.0007 13.8035 87.902 16.6416 86.2235 20.5117L74.2676 13.5197C78.2443 4.33456 86.5592 0 95.1582 0C106.21 0 116.126 7.25006 116.126 19.7119C116.126 27.1425 112.15 33.5153 106.469 39.1657L96.2169 49.5119H117.004V63.1347H74.8873V52.8918H74.9131Z" fill="white"/>
<path d="M2.16859 75.7116V77.5423H5.69454V79.63H2.16859V83.1134H0V73.6279H5.76181V75.7156H2.16859V75.7116Z" fill="white"/>
<path d="M11.1311 79.9938H10.1022V83.1095H7.93359V73.624H11.7286C13.5332 73.624 14.9815 75.0751 14.9815 76.8742C14.9815 78.0406 14.2771 79.0963 13.2324 79.6261L15.2546 83.1095H12.9237L11.1311 79.9938ZM10.1022 78.0959H11.7286C12.3262 78.0959 12.8129 77.5661 12.8129 76.8781C12.8129 76.1862 12.3262 75.6603 11.7286 75.6603H10.1022V78.0959Z" fill="white"/>
<path d="M19.3229 73.6279V83.1134H17.1543V73.6279H19.3229Z" fill="white"/>
<path d="M27.7957 81.0218V83.1095H21.832V73.624H27.7323V75.7117H24.0046V77.2814H27.396V79.3414H24.0046V81.0218H27.7957Z" fill="white"/>
<path d="M37.3559 73.6279V83.1134H35.7295L32.069 77.9654V83.1134H29.9004V73.6279H31.5268L35.1873 78.7759V73.6279H37.3559Z" fill="white"/>
<path d="M48.2744 78.3687C48.2744 81.0495 46.2799 83.1095 43.6642 83.1095H39.8691V73.624H43.6642C46.2799 73.628 48.2744 75.684 48.2744 78.3687ZM46.185 78.3687C46.185 76.7437 45.1561 75.7117 43.6642 75.7117H42.0377V81.0218H43.6642C45.1561 81.0218 46.185 79.9938 46.185 78.3687Z" fill="white"/>
<path d="M49.5605 80.9549L51.4323 79.8716C51.7727 80.6584 52.3544 81.1843 53.4268 81.1843C54.4557 81.1843 54.7169 80.777 54.7169 80.4133C54.7169 79.832 54.1747 79.5987 52.7501 79.2073C51.3413 78.8159 49.9563 78.1358 49.9563 76.3209C49.9563 74.4903 51.5036 73.4346 53.1419 73.4346C54.7011 73.4346 55.9199 74.1779 56.6124 75.5736L54.7802 76.6452C54.4557 75.969 54.0085 75.546 53.1379 75.546C52.4612 75.546 52.1209 75.886 52.1209 76.2656C52.1209 76.7005 52.3504 76.9971 53.8305 77.4439C55.267 77.8788 56.8815 78.377 56.8815 80.3856C56.8815 82.2162 55.4173 83.2996 53.3556 83.2996C51.3651 83.2996 50.0908 82.3507 49.5605 80.9549Z" fill="white"/>
<path d="M65.1272 83.4617L64.2883 82.5523C63.6234 83.011 62.8122 83.2957 61.8348 83.2957C59.8838 83.2957 58.4434 82.2242 58.4434 80.437C58.4434 79.3536 58.9855 78.3374 59.963 77.7127C59.7176 77.2936 59.5712 76.8191 59.5712 76.2102C59.5712 74.6128 60.8059 73.4346 62.6223 73.4346C63.9915 73.4346 65.1589 74.1107 65.7406 75.5064L63.8846 76.5779C63.6393 75.9414 63.2594 75.5499 62.65 75.5499C62.1078 75.5499 61.7398 75.89 61.7398 76.3486C61.7398 76.8784 62.0643 77.2303 62.4837 77.689L64.2329 79.6264C64.4228 79.1915 64.5732 78.6933 64.68 78.1358L66.4964 79.1638C66.3184 79.8281 66.0374 80.5319 65.6298 81.1566L66.8249 82.4851L65.1272 83.4617ZM62.9586 81.1052L61.2214 79.235L61.1383 79.152C60.7861 79.4366 60.6357 79.8281 60.6357 80.2077C60.6357 80.8442 61.0433 81.3187 62.0049 81.3187C62.3611 81.3227 62.6737 81.2554 62.9586 81.1052Z" fill="white"/>
<path d="M70.9577 75.7116V77.5423H74.4836V79.63H70.9577V83.1134H68.7891V73.6279H74.5509V75.7156H70.9577V75.7116Z" fill="white"/>
<path d="M81.8771 81.6189H78.3512L77.8763 83.1095H75.502L78.7271 73.624H81.4933L84.7185 83.1095H82.3441L81.8771 81.6189ZM81.2242 79.5866L80.1122 76.1031L79.0002 79.5866H81.2242Z" fill="white"/>
<path d="M95.9075 83.1095H93.739V77.5938L91.2854 81.6189H91.0401L88.5866 77.5938V83.1095H86.418V73.624H88.5866L91.1628 77.8389L93.739 73.624H95.9075V83.1095Z" fill="white"/>
<path d="M100.587 73.6279V83.1134H98.418V73.6279H100.587Z" fill="white"/>
<path d="M108.654 81.0218V83.1095H103.094V73.624H105.262V81.0218H108.654Z" fill="white"/>
<path d="M113.807 79.464V83.1095H111.639V79.464L108.453 73.624H110.922L112.727 77.2814L114.532 73.624H117.001L113.807 79.464Z" fill="white"/>
<path d="M1.89569 91.3379L0.248979 89.7197V91.3379H0V88.0547H0.248979V89.5842L1.84885 88.0547H2.18165L0.520143 89.6483L2.22848 91.3355H1.89569V91.3379Z" fill="white"/>
<path d="M5.0108 88.0547L3.91628 90.6187C3.68702 91.1581 3.36162 91.3699 2.91543 91.3355V91.1064C3.26795 91.1433 3.4972 90.9857 3.6673 90.5916L3.724 90.4611L2.57031 88.0547H2.82915L3.84232 90.1778L4.75196 88.0547H5.0108Z" fill="white"/>
<path d="M5.01614 91.1163C5.44754 91.168 5.72363 90.8995 5.72363 89.9438V88.0547H7.80174V91.3379H7.54783V88.2911H5.97015V89.9512C5.97015 91.0448 5.61763 91.3897 5.01367 91.3404V91.1163H5.01614Z" fill="white"/>
<path d="M10.9893 90.3207C10.9893 90.902 10.5579 91.3379 9.96632 91.3379H8.84961V88.0547H9.09859V89.3059H9.96632C10.5579 89.3084 10.9893 89.7443 10.9893 90.3207ZM10.7404 90.3207C10.7404 89.87 10.4174 89.5424 9.96632 89.5424H9.09859V91.1039H9.96632C10.4174 91.1039 10.7404 90.7739 10.7404 90.3207Z" fill="white"/>
<path d="M13.4349 88.2887H12.402V91.3355H12.1481V88.2887H11.1152V88.0547H13.4325V88.2887H13.4349Z" fill="white"/>
<path d="M16.3741 88.0547L15.2796 90.6187C15.0503 91.1581 14.7249 91.3699 14.2787 91.3355V91.1064C14.6312 91.1433 14.8605 90.9857 15.0306 90.5916L15.0873 90.4611L13.9336 88.0547H14.1924L15.2056 90.1778L16.1152 88.0547H16.3741Z" fill="white"/>
<path d="M19.2159 89.0715C19.2159 89.6478 18.7845 90.0838 18.1929 90.0838H17.3252V91.335H17.0762V88.0518H18.1929C18.7845 88.0542 19.2159 88.4902 19.2159 89.0715ZM18.9694 89.0715C18.9694 88.6158 18.6465 88.2882 18.1953 88.2882H17.3276V89.8498H18.1953C18.644 89.8498 18.9694 89.5222 18.9694 89.0715Z" fill="white"/>
<path d="M22.4748 88.0547V91.3379H22.2259V89.7665H20.3154V91.3379H20.0664V88.0547H20.3154V89.5325H22.2259V88.0547H22.4748Z" fill="white"/>
<path d="M23.3379 89.697C23.3379 88.7586 24.0848 88.0049 25.0314 88.0049C25.9805 88.0049 26.725 88.761 26.725 89.697C26.725 90.6354 25.9781 91.3891 25.0314 91.3891C24.0824 91.3891 23.3379 90.633 23.3379 89.697ZM26.476 89.697C26.476 88.8916 25.8425 88.2438 25.0314 88.2438C24.2204 88.2438 23.5869 88.8916 23.5869 89.697C23.5869 90.5024 24.2204 91.1502 25.0314 91.1502C25.8425 91.1502 26.476 90.5024 26.476 89.697Z" fill="white"/>
<path d="M27.5879 89.7764H29.2765V90.0009H27.5879V89.7764Z" fill="white"/>
<path d="M32.464 89.0715C32.464 89.6478 32.0326 90.0838 31.4409 90.0838H30.5732V91.335H30.3242V88.0518H31.4409C32.0326 88.0542 32.464 88.4902 32.464 89.0715ZM32.2174 89.0715C32.2174 88.6158 31.8945 88.2882 31.4434 88.2882H30.5757V89.8498H31.4434C31.892 89.8498 32.2174 89.5222 32.2174 89.0715Z" fill="white"/>
<path d="M34.8769 90.503H33.2302L32.9122 91.3379H32.6484L33.9254 88.0547H34.1891L35.4612 91.3379H35.1974L34.8769 90.503ZM34.7882 90.269L34.056 88.3601L33.3239 90.269H34.7882Z" fill="white"/>
<path d="M38.1895 90.4655C38.1895 90.9901 37.768 91.3891 37.0827 91.3891C36.4343 91.3891 36.0868 91.0665 35.9512 90.6675L36.1681 90.5492C36.2569 90.8719 36.5206 91.1552 37.0827 91.1552C37.6275 91.1552 37.9356 90.8645 37.9356 90.4655C37.9356 90.0813 37.6546 89.7808 37.1665 89.7808H36.7967V89.5468H37.0605C37.5338 89.5468 37.8197 89.266 37.8197 88.8941C37.8197 88.5197 37.5239 88.2365 37.0629 88.2365C36.5847 88.2365 36.3357 88.4754 36.2174 88.7759L36.0103 88.6576C36.1656 88.2882 36.4886 88 37.0605 88C37.662 88 38.0638 88.3892 38.0638 88.8916C38.0638 89.2241 37.8814 89.4975 37.5757 89.6379C37.9652 89.7709 38.1895 90.0763 38.1895 90.4655Z" fill="white"/>
<path d="M41.3323 90.4414C41.3323 90.9389 40.933 91.3379 40.435 91.3379H39.0176V88.0547H40.3266C40.8048 88.0547 41.1894 88.4438 41.1894 88.9168C41.1894 89.2345 41.0193 89.498 40.7678 89.6335C41.0982 89.7616 41.3323 90.067 41.3323 90.4414ZM39.269 88.2887V89.5448H40.329C40.6668 89.5448 40.9429 89.264 40.9429 88.9168C40.9429 88.5695 40.6668 88.2887 40.329 88.2887H39.269ZM41.0834 90.4414C41.0834 90.0768 40.7925 89.7813 40.435 89.7813H39.2666V91.1039H40.435C40.7925 91.1039 41.0834 90.8084 41.0834 90.4414Z" fill="white"/>
<path d="M41.7134 91.1163C42.1448 91.168 42.4209 90.8995 42.4209 89.9438V88.0547H44.499V91.3379H44.2451V88.2911H42.6674V89.9512C42.6674 91.0448 42.3149 91.3897 41.7109 91.3404V91.1163H41.7134Z" fill="white"/>
<path d="M47.4396 91.1039V91.3379H45.5488V88.0547H47.4174V88.2887H45.7978V89.5645H47.2991V89.7985H45.7978V91.1015H47.4396V91.1039Z" fill="white"/>
<path d="M50.1808 91.3379L48.5341 89.7197V91.3379H48.2852V88.0547H48.5341V89.5842L50.134 88.0547H50.4668L48.8053 89.6483L50.5136 91.3355H50.1808V91.3379Z" fill="white"/>
<path d="M53.1406 90.503H51.4939L51.1759 91.3379H50.9121L52.189 88.0547H52.4528L53.7248 91.3379H53.4611L53.1406 90.503ZM53.0519 90.269L52.3197 88.3601L51.5876 90.269H53.0519Z" fill="white"/>
<path d="M56.2201 88.2887H55.1872V91.3355H54.9333V88.2887H53.9004V88.0547H56.2176V88.2887H56.2201Z" fill="white"/>
<path d="M58.8615 91.1039V91.3379H56.9707V88.0547H58.8393V88.2887H57.2197V89.5645H58.721V89.7985H57.2197V91.1015H58.8615V91.1039Z" fill="white"/>
<path d="M59.3833 91.1163C59.8147 91.168 60.0908 90.8995 60.0908 89.9438V88.0547H62.1689V91.3379H61.915V88.2911H60.3373V89.9512C60.3373 91.0448 59.9848 91.3897 59.3809 91.3404V91.1163H59.3833Z" fill="white"/>
<path d="M65.3546 90.3207C65.3546 90.902 64.9232 91.3379 64.3316 91.3379H63.2148V88.0547H63.4638V89.3059H64.3316C64.9232 89.3084 65.3546 89.7443 65.3546 90.3207ZM65.1056 90.3207C65.1056 89.87 64.7827 89.5424 64.3316 89.5424H63.4638V91.1039H64.3316C64.7827 91.1039 65.1056 90.7739 65.1056 90.3207Z" fill="white"/>
<path d="M68.6116 88.0547V91.3379H68.3626V89.7665H66.4521V91.3379H66.2031V88.0547H66.4521V89.5325H68.3626V88.0547H68.6116Z" fill="white"/>
<path d="M69.4766 89.697C69.4766 88.7586 70.2235 88.0049 71.1701 88.0049C72.1192 88.0049 72.8637 88.761 72.8637 89.697C72.8637 90.6354 72.1167 91.3891 71.1701 91.3891C70.221 91.3891 69.4766 90.633 69.4766 89.697ZM72.6147 89.697C72.6147 88.8916 71.9811 88.2438 71.1701 88.2438C70.3591 88.2438 69.7255 88.8916 69.7255 89.697C69.7255 90.5024 70.3591 91.1502 71.1701 91.1502C71.9811 91.1502 72.6147 90.5024 72.6147 89.697Z" fill="white"/>
<path d="M75.6212 91.1039V91.3379H73.7305V88.0547H75.599V88.2887H73.9794V89.5645H75.4807V89.7985H73.9794V91.1015H75.6212V91.1039Z" fill="white"/>
<path d="M80.298 91.3379H80.0441V88.2911H78.2001V91.3379H77.9512V88.0547H80.298V91.3379Z" fill="white"/>
<path d="M83.4854 89.0715C83.4854 89.6478 83.054 90.0838 82.4624 90.0838H81.5947V91.335H81.3457V88.0518H82.4624C83.054 88.0542 83.4854 88.4902 83.4854 89.0715ZM83.2365 89.0715C83.2365 88.6158 82.9135 88.2882 82.4624 88.2882H81.5947V89.8498H82.4624C82.9135 89.8498 83.2365 89.5222 83.2365 89.0715Z" fill="white"/>
<path d="M84.123 89.697C84.123 88.7586 84.87 88.0049 85.8166 88.0049C86.7657 88.0049 87.5102 88.761 87.5102 89.697C87.5102 90.6354 86.7632 91.3891 85.8166 91.3891C84.87 91.3891 84.123 90.633 84.123 89.697ZM87.2612 89.697C87.2612 88.8916 86.6276 88.2438 85.8166 88.2438C85.0056 88.2438 84.372 88.8916 84.372 89.697C84.372 90.5024 85.0056 91.1502 85.8166 91.1502C86.6276 91.1502 87.2612 90.5024 87.2612 89.697Z" fill="white"/>
<path d="M88.1855 89.697C88.1855 88.7586 88.893 88.0049 89.8939 88.0049C90.5003 88.0049 91.0303 88.3152 91.3015 88.7931L91.0821 88.9187C90.8652 88.5147 90.4116 88.2438 89.8939 88.2438C89.0311 88.2438 88.4345 88.8916 88.4345 89.697C88.4345 90.5024 89.0311 91.1502 89.8939 91.1502C90.414 91.1502 90.875 90.8743 91.0895 90.4605L91.3089 90.5862C91.0402 91.0689 90.5052 91.3891 89.8914 91.3891C88.8955 91.3891 88.1855 90.633 88.1855 89.697Z" fill="white"/>
<path d="M94.1049 88.2887H93.072V91.3355H92.818V88.2887H91.7852V88.0547H94.1024V88.2887H94.1049Z" fill="white"/>
<path d="M96.9952 89.0715C96.9952 89.6478 96.5638 90.0838 95.9722 90.0838H95.1045V91.335H94.8555V88.0518H95.9722C96.5638 88.0542 96.9952 88.4902 96.9952 89.0715ZM96.7462 89.0715C96.7462 88.6158 96.4233 88.2882 95.9722 88.2882H95.1045V89.8498H95.9722C96.4208 89.8498 96.7462 89.5222 96.7462 89.0715Z" fill="white"/>
<path d="M99.4082 90.503H97.7615L97.4435 91.3379H97.1797L98.4566 88.0547H98.7204L99.9924 91.3379H99.7286L99.4082 90.503ZM99.3194 90.269L98.5873 88.3601L97.8551 90.269H99.3194Z" fill="white"/>
<path d="M103.11 88.0547V91.3379H102.861V89.7665H100.95V91.3379H100.701V88.0547H100.95V89.5325H102.861V88.0547H103.11Z" fill="white"/>
<path d="M103.971 89.697C103.971 88.7586 104.678 88.0049 105.679 88.0049C106.285 88.0049 106.815 88.3152 107.087 88.7931L106.867 88.9187C106.65 88.5147 106.197 88.2438 105.679 88.2438C104.816 88.2438 104.22 88.8916 104.22 89.697C104.22 90.5024 104.816 91.1502 105.679 91.1502C106.199 91.1502 106.66 90.8743 106.875 90.4605L107.094 90.5862C106.825 91.0689 106.29 91.3891 105.677 91.3891C104.681 91.3891 103.971 90.633 103.971 89.697Z" fill="white"/>
<path d="M109.89 88.2887H108.857V91.3355H108.603V88.2887H107.57V88.0547H109.888V88.2887H109.89Z" fill="white"/>
<path d="M112.955 90.4414C112.955 90.9389 112.556 91.3379 112.058 91.3379H110.641V88.0547H111.95C112.428 88.0547 112.812 88.4438 112.812 88.9168C112.812 89.2345 112.642 89.498 112.391 89.6335C112.721 89.7616 112.955 90.067 112.955 90.4414ZM110.89 88.2887V89.5448H111.95C112.287 89.5448 112.563 89.264 112.563 88.9168C112.563 88.5695 112.287 88.2887 111.95 88.2887H110.89ZM112.706 90.4414C112.706 90.0768 112.416 89.7813 112.058 89.7813H110.89V91.1039H112.058C112.416 91.1039 112.706 90.8084 112.706 90.4414Z" fill="white"/>
<path d="M113.613 89.697C113.613 88.7586 114.36 88.0049 115.307 88.0049C116.256 88.0049 117 88.761 117 89.697C117 90.6354 116.253 91.3891 115.307 91.3891C114.358 91.3891 113.613 90.633 113.613 89.697ZM116.751 89.697C116.751 88.8916 116.118 88.2438 115.307 88.2438C114.496 88.2438 113.862 88.8916 113.862 89.697C113.862 90.5024 114.496 91.1502 115.307 91.1502C116.118 91.1502 116.751 90.5024 116.751 89.697Z" fill="white"/>
</svg>
