<svg width="277" height="35" viewBox="0 0 277 35" fill="none" xmlns="http://www.w3.org/2000/svg">
<path d="M48.2512 14.2705H45.0529V6.13587L41.4344 12.0721H41.0726L37.4541 6.13587V14.2705H34.2559V0.28125H37.4541L41.2535 6.49741L45.0529 0.28125H48.2512V14.2705Z" fill="white"/>
<path d="M51.1869 11.9542L55.8851 7.0792C56.7022 6.23949 57.3033 5.42311 57.3033 4.6009C57.3033 3.72037 56.743 3.11975 55.8034 3.11975C54.8229 3.11975 54.1226 3.76119 53.7432 4.63588L51.041 3.0556C51.9398 0.979661 53.8191 0 55.7625 0C58.2605 0 60.5016 1.6386 60.5016 4.45511C60.5016 6.13453 59.6028 7.57485 58.3188 8.85191L56.0018 11.1903H60.7V14.2692H51.1811V11.9542H51.1869Z" fill="white"/>
<path d="M73.4053 3.35922V6.05911H78.6054V9.13804H73.4053V14.2754H70.207V0.286133H78.7046V3.36506H73.4053V3.35922Z" fill="white"/>
<path d="M86.6219 9.67449H85.1045V14.2695H81.9062V0.280273H87.5032C90.1645 0.280273 92.3006 2.42036 92.3006 5.0736C92.3006 6.79383 91.2618 8.35079 89.721 9.13218L92.7033 14.2695H89.2658L86.6219 9.67449ZM85.1045 6.87547H87.5032C88.3845 6.87547 89.1023 6.09408 89.1023 5.07943C89.1023 4.05895 88.3845 3.28339 87.5032 3.28339H85.1045V6.87547Z" fill="white"/>
<path d="M98.7041 0.286133V14.2754H95.5059V0.286133H98.7041Z" fill="white"/>
<path d="M111.201 11.1906V14.2695H102.406V0.280273H111.108V3.3592H105.61V5.67422H110.612V8.71233H105.61V11.1906H111.201Z" fill="white"/>
<path d="M125.3 0.286133V14.2754H122.901L117.503 6.68306V14.2754H114.305V0.286133H116.703L122.102 7.87848V0.286133H125.3Z" fill="white"/>
<path d="M141.402 7.27783C141.402 11.2314 138.461 14.2695 134.603 14.2695H129.006V0.280273H134.603C138.461 0.286105 141.402 3.31838 141.402 7.27783ZM138.321 7.27783C138.321 4.88117 136.803 3.3592 134.603 3.3592H132.204V11.1906H134.603C136.803 11.1906 138.321 9.67449 138.321 7.27783Z" fill="white"/>
<path d="M143.299 11.0911L146.059 9.49335C146.561 10.6538 147.419 11.4293 149.001 11.4293C150.518 11.4293 150.903 10.8287 150.903 10.2922C150.903 9.43504 150.104 9.09099 148.003 8.51369C145.925 7.9364 143.882 6.93341 143.882 4.25685C143.882 1.55696 146.164 0 148.581 0C150.88 0 152.678 1.09629 153.699 3.15473L150.997 4.73501C150.518 3.73786 149.859 3.11391 148.575 3.11391C147.577 3.11391 147.075 3.6154 147.075 4.17521C147.075 4.81665 147.413 5.254 149.596 5.91294C151.715 6.55438 154.096 7.28912 154.096 10.2514C154.096 12.9513 151.936 14.5491 148.896 14.5491C145.96 14.5491 144.081 13.1496 143.299 11.0911Z" fill="white"/>
<path d="M166.258 14.7882L165.021 13.447C164.04 14.1234 162.844 14.5432 161.402 14.5432C158.525 14.5432 156.4 12.963 156.4 10.3272C156.4 8.72945 157.2 7.23081 158.642 6.30946C158.28 5.69135 158.064 4.99159 158.064 4.09357C158.064 1.73773 159.885 0 162.563 0C164.583 0 166.305 0.997154 167.162 3.0556L164.425 4.63588C164.063 3.69704 163.503 3.11975 162.604 3.11975C161.805 3.11975 161.262 3.62123 161.262 4.29767C161.262 5.07906 161.741 5.59804 162.359 6.27447L164.939 9.13181C165.219 8.49037 165.441 7.75562 165.598 6.93341L168.277 8.44955C168.015 9.4292 167.6 10.4672 166.999 11.3885L168.762 13.3478L166.258 14.7882ZM163.06 11.3127L160.497 8.55451L160.375 8.43205C159.855 8.85191 159.634 9.4292 159.634 9.98901C159.634 10.9278 160.235 11.6276 161.653 11.6276C162.178 11.6334 162.639 11.5343 163.06 11.3127Z" fill="white"/>
<path d="M174.856 3.35922V6.05911H180.057V9.13804H174.856V14.2754H171.658V0.286133H180.156V3.36506H174.856V3.35922Z" fill="white"/>
<path d="M190.959 12.0711H185.759L185.058 14.2695H181.557L186.313 0.280273H190.393L195.149 14.2695H191.647L190.959 12.0711ZM189.996 9.07387L188.356 3.93649L186.716 9.07387H189.996Z" fill="white"/>
<path d="M211.654 14.2695H208.455V6.13489L204.837 12.0711H204.475L200.856 6.13489V14.2695H197.658V0.280273H200.856L204.656 6.49644L208.455 0.280273H211.654V14.2695Z" fill="white"/>
<path d="M218.552 0.286133V14.2754H215.354V0.286133H218.552Z" fill="white"/>
<path d="M230.452 11.1906V14.2695H222.252V0.280273H225.45V11.1906H230.452Z" fill="white"/>
<path d="M238.051 8.89309V14.2695H234.852V8.89309L230.154 0.280273H233.796L236.457 5.67422L239.119 0.280273H242.761L238.051 8.89309Z" fill="white"/>
<path d="M4.48807 34.8786L0.58946 31.0474V34.8786H0V27.1055H0.58946V30.7267L4.37719 27.1055H5.16508L1.23145 30.8783L5.27597 34.8727H4.48807V34.8786Z" fill="white"/>
<path d="M11.8638 27.1055L9.27253 33.1758C8.72976 34.4529 7.95937 34.9544 6.90301 34.8727V34.3304C7.7376 34.4179 8.28037 34.0447 8.68307 33.1117L8.8173 32.8026L6.08594 27.1055H6.69875L9.09744 32.132L11.251 27.1055H11.8638Z" fill="white"/>
<path d="M11.8769 34.3538C12.8983 34.4762 13.5519 33.8406 13.5519 31.5781V27.1055H18.4719V34.8786H17.8708V27.6653H14.1356V31.5956C14.1356 34.1847 13.301 35.001 11.8711 34.8844V34.3538H11.8769Z" fill="white"/>
<path d="M26.017 32.4703C26.017 33.8464 24.9957 34.8786 23.595 34.8786H20.9512V27.1055H21.5406V30.0678H23.595C24.9957 30.0736 26.017 31.1057 26.017 32.4703ZM25.4276 32.4703C25.4276 31.4031 24.663 30.6276 23.595 30.6276H21.5406V34.3246H23.595C24.663 34.3246 25.4276 33.5432 25.4276 32.4703Z" fill="white"/>
<path d="M31.8083 27.6594H29.3629V34.8727H28.7618V27.6594H26.3164V27.1055H31.8025V27.6594H31.8083Z" fill="white"/>
<path d="M38.7662 27.1055L36.1749 33.1758C35.6321 34.4529 34.8617 34.9544 33.8054 34.8727V34.3304C34.6399 34.4179 35.1827 34.0447 35.5854 33.1117L35.7196 32.8026L32.9883 27.1055H33.6011L35.9998 32.132L38.1534 27.1055H38.7662Z" fill="white"/>
<path d="M45.4916 29.5138C45.4916 30.8783 44.4703 31.9104 43.0696 31.9104H41.0152V34.8727H40.4258V27.0996H43.0696C44.4703 27.1054 45.4916 28.1376 45.4916 29.5138ZM44.908 29.5138C44.908 28.435 44.1435 27.6594 43.0754 27.6594H41.0211V31.3565H43.0754C44.1376 31.3565 44.908 30.5809 44.908 29.5138Z" fill="white"/>
<path d="M53.2098 27.1055V34.8786H52.6204V31.1582H48.0973V34.8786H47.5078V27.1055H48.0973V30.6042H52.6204V27.1055H53.2098Z" fill="white"/>
<path d="M55.252 30.9944C55.252 28.7727 57.0203 26.9883 59.2615 26.9883C61.5084 26.9883 63.271 28.7785 63.271 30.9944C63.271 33.2161 61.5026 35.0005 59.2615 35.0005C57.0145 35.0005 55.252 33.2103 55.252 30.9944ZM62.6815 30.9944C62.6815 29.0876 61.1816 27.5539 59.2615 27.5539C57.3413 27.5539 55.8414 29.0876 55.8414 30.9944C55.8414 32.9012 57.3413 34.4348 59.2615 34.4348C61.1816 34.4348 62.6815 32.9012 62.6815 30.9944Z" fill="white"/>
<path d="M65.3145 31.1816H69.3123V31.7133H65.3145V31.1816Z" fill="white"/>
<path d="M76.8569 29.5138C76.8569 30.8783 75.8355 31.9104 74.4348 31.9104H72.3805V34.8727H71.791V27.0996H74.4348C75.8355 27.1054 76.8569 28.1376 76.8569 29.5138ZM76.2733 29.5138C76.2733 28.435 75.5087 27.6594 74.4407 27.6594H72.3863V31.3565H74.4407C75.5029 31.3565 76.2733 30.5809 76.2733 29.5138Z" fill="white"/>
<path d="M82.5728 32.9018H78.6742L77.9213 34.8786H77.2969L80.32 27.1055H80.9445L83.956 34.8786H83.3316L82.5728 32.9018ZM82.3627 32.3478L80.6294 27.8285L78.896 32.3478H82.3627Z" fill="white"/>
<path d="M90.4165 32.8137C90.4165 34.0558 89.4185 35.0004 87.796 35.0004C86.2611 35.0004 85.4382 34.2365 85.1172 33.2918L85.6308 33.0119C85.8409 33.7758 86.4654 34.4464 87.796 34.4464C89.0858 34.4464 89.8154 33.7584 89.8154 32.8137C89.8154 31.904 89.15 31.1926 87.9945 31.1926H87.119V30.6386H87.7435C88.8641 30.6386 89.5411 29.9738 89.5411 29.0933C89.5411 28.207 88.8407 27.5364 87.7493 27.5364C86.6171 27.5364 86.0276 28.102 85.7475 28.8134L85.2573 28.5335C85.6249 27.6588 86.3895 26.9766 87.7435 26.9766C89.1675 26.9766 90.1189 27.8979 90.1189 29.0875C90.1189 29.8747 89.687 30.522 88.9633 30.8544C89.8854 31.1693 90.4165 31.8923 90.4165 32.8137Z" fill="white"/>
<path d="M97.8552 32.756C97.8552 33.9339 96.9098 34.8786 95.7308 34.8786H92.375V27.1055H95.474C96.6063 27.1055 97.5167 28.0268 97.5167 29.1464C97.5167 29.8987 97.114 30.5226 96.5187 30.8433C97.3008 31.1465 97.8552 31.8696 97.8552 32.756ZM92.9703 27.6594V30.6334H95.4799C96.2794 30.6334 96.9331 29.9686 96.9331 29.1464C96.9331 28.3242 96.2794 27.6594 95.4799 27.6594H92.9703ZM97.2658 32.756C97.2658 31.893 96.5771 31.1932 95.7308 31.1932H92.9645V34.3246H95.7308C96.5771 34.3246 97.2658 33.6248 97.2658 32.756Z" fill="white"/>
<path d="M98.7578 34.3538C99.7791 34.4762 100.433 33.8406 100.433 31.5781V27.1055H105.353V34.8786H104.752V27.6653H101.016V31.5956C101.016 34.1847 100.182 35.001 98.752 34.8844V34.3538H98.7578Z" fill="white"/>
<path d="M112.312 34.3246V34.8786H107.836V27.1055H112.26V27.6594H108.425V30.68H111.98V31.234H108.425V34.3188H112.312V34.3246Z" fill="white"/>
<path d="M118.803 34.8786L114.904 31.0474V34.8786H114.314V27.1055H114.904V30.7267L118.692 27.1055H119.48L115.546 30.8783L119.59 34.8727H118.803V34.8786Z" fill="white"/>
<path d="M125.813 32.9018H121.914L121.162 34.8786H120.537L123.56 27.1055H124.185L127.196 34.8786H126.572L125.813 32.9018ZM125.603 32.3478L123.87 27.8285L122.136 32.3478H125.603Z" fill="white"/>
<path d="M133.101 27.6594H130.656V34.8727H130.055V27.6594H127.609V27.1055H133.095V27.6594H133.101Z" fill="white"/>
<path d="M139.357 34.3246V34.8786H134.881V27.1055H139.305V27.6594H135.47V30.68H139.025V31.234H135.47V34.3188H139.357V34.3246Z" fill="white"/>
<path d="M140.59 34.3538C141.611 34.4762 142.265 33.8406 142.265 31.5781V27.1055H147.185V34.8786H146.584V27.6653H142.848V31.5956C142.848 34.1847 142.014 35.001 140.584 34.8844V34.3538H140.59Z" fill="white"/>
<path d="M154.73 32.4703C154.73 33.8464 153.709 34.8786 152.308 34.8786H149.664V27.1055H150.254V30.0678H152.308C153.709 30.0736 154.73 31.1057 154.73 32.4703ZM154.14 32.4703C154.14 31.4031 153.376 30.6276 152.308 30.6276H150.254V34.3246H152.308C153.376 34.3246 154.14 33.5432 154.14 32.4703Z" fill="white"/>
<path d="M162.44 27.1055V34.8786H161.851V31.1582H157.328V34.8786H156.738V27.1055H157.328V30.6042H161.851V27.1055H162.44Z" fill="white"/>
<path d="M164.488 30.9944C164.488 28.7727 166.257 26.9883 168.498 26.9883C170.745 26.9883 172.507 28.7785 172.507 30.9944C172.507 33.2161 170.739 35.0005 168.498 35.0005C166.251 35.0005 164.488 33.2103 164.488 30.9944ZM171.918 30.9944C171.918 29.0876 170.418 27.5539 168.498 27.5539C166.578 27.5539 165.078 29.0876 165.078 30.9944C165.078 32.9012 166.578 34.4348 168.498 34.4348C170.418 34.4348 171.918 32.9012 171.918 30.9944Z" fill="white"/>
<path d="M179.033 34.3246V34.8786H174.557V27.1055H178.981V27.6594H175.146V30.68H178.7V31.234H175.146V34.3188H179.033V34.3246Z" fill="white"/>
<path d="M190.105 34.8786H189.504V27.6653H185.138V34.8786H184.549V27.1055H190.105V34.8786Z" fill="white"/>
<path d="M197.652 29.5138C197.652 30.8783 196.63 31.9104 195.23 31.9104H193.175V34.8727H192.586V27.0996H195.23C196.63 27.1054 197.652 28.1376 197.652 29.5138ZM197.062 29.5138C197.062 28.435 196.298 27.6594 195.23 27.6594H193.175V31.3565H195.23C196.298 31.3565 197.062 30.5809 197.062 29.5138Z" fill="white"/>
<path d="M199.162 30.9944C199.162 28.7727 200.931 26.9883 203.172 26.9883C205.419 26.9883 207.181 28.7785 207.181 30.9944C207.181 33.2161 205.413 35.0005 203.172 35.0005C200.931 35.0005 199.162 33.2103 199.162 30.9944ZM206.592 30.9944C206.592 29.0876 205.092 27.5539 203.172 27.5539C201.252 27.5539 199.752 29.0876 199.752 30.9944C199.752 32.9012 201.252 34.4348 203.172 34.4348C205.092 34.4348 206.592 32.9012 206.592 30.9944Z" fill="white"/>
<path d="M208.781 30.9944C208.781 28.7727 210.456 26.9883 212.826 26.9883C214.261 26.9883 215.516 27.723 216.158 28.8543L215.639 29.1517C215.125 28.1954 214.051 27.5539 212.826 27.5539C210.783 27.5539 209.371 29.0876 209.371 30.9944C209.371 32.9012 210.783 34.4348 212.826 34.4348C214.057 34.4348 215.149 33.7817 215.656 32.8021L216.176 33.0995C215.54 34.2424 214.273 35.0005 212.82 35.0005C210.462 35.0005 208.781 33.2103 208.781 30.9944Z" fill="white"/>
<path d="M222.795 27.6594H220.349V34.8727H219.748V27.6594H217.303V27.1055H222.789V27.6594H222.795Z" fill="white"/>
<path d="M229.638 29.5138C229.638 30.8783 228.617 31.9104 227.216 31.9104H225.162V34.8727H224.572V27.0996H227.216C228.617 27.1054 229.638 28.1376 229.638 29.5138ZM229.049 29.5138C229.049 28.435 228.284 27.6594 227.216 27.6594H225.162V31.3565H227.216C228.278 31.3565 229.049 30.5809 229.049 29.5138Z" fill="white"/>
<path d="M235.348 32.9018H231.45L230.697 34.8786H230.072L233.095 27.1055H233.72L236.731 34.8786H236.107L235.348 32.9018ZM235.138 32.3478L233.405 27.8285L231.671 32.3478H235.138Z" fill="white"/>
<path d="M244.112 27.1055V34.8786H243.523V31.1582H239V34.8786H238.41V27.1055H239V30.6042H243.523V27.1055H244.112Z" fill="white"/>
<path d="M246.154 30.9944C246.154 28.7727 247.829 26.9883 250.199 26.9883C251.635 26.9883 252.889 27.723 253.531 28.8543L253.012 29.1517C252.498 28.1954 251.424 27.5539 250.199 27.5539C248.156 27.5539 246.744 29.0876 246.744 30.9944C246.744 32.9012 248.156 34.4348 250.199 34.4348C251.43 34.4348 252.522 33.7817 253.029 32.8021L253.549 33.0995C252.913 34.2424 251.646 35.0005 250.193 35.0005C247.835 35.0005 246.154 33.2103 246.154 30.9944Z" fill="white"/>
<path d="M260.168 27.6594H257.722V34.8727H257.121V27.6594H254.676V27.1055H260.162V27.6594H260.168Z" fill="white"/>
<path d="M267.422 32.756C267.422 33.9339 266.476 34.8786 265.297 34.8786H261.941V27.1055H265.04C266.173 27.1055 267.083 28.0268 267.083 29.1464C267.083 29.8987 266.68 30.5226 266.085 30.8433C266.867 31.1465 267.422 31.8696 267.422 32.756ZM262.531 27.6594V30.6334H265.04C265.84 30.6334 266.494 29.9686 266.494 29.1464C266.494 28.3242 265.84 27.6594 265.04 27.6594H262.531ZM266.832 32.756C266.832 31.893 266.144 31.1932 265.297 31.1932H262.531V34.3246H265.297C266.144 34.3246 266.832 33.6248 266.832 32.756Z" fill="white"/>
<path d="M268.98 30.9944C268.98 28.7727 270.749 26.9883 272.99 26.9883C275.237 26.9883 276.999 28.7785 276.999 30.9944C276.999 33.2161 275.231 35.0005 272.99 35.0005C270.743 35.0005 268.98 33.2103 268.98 30.9944ZM276.41 30.9944C276.41 29.0876 274.91 27.5539 272.99 27.5539C271.07 27.5539 269.57 29.0876 269.57 30.9944C269.57 32.9012 271.07 34.4348 272.99 34.4348C274.91 34.4348 276.41 32.9012 276.41 30.9944Z" fill="white"/>
</svg>
