<svg width="22" height="22" viewBox="0 0 22 22" fill="none" xmlns="http://www.w3.org/2000/svg">
<path fill-rule="evenodd" clip-rule="evenodd" d="M1.54367 1.54367C0 3.08733 0 5.5726 0 10.5417V11.4583C0 16.4267 0 18.9127 1.54367 20.4563C3.08733 22 5.5726 22 10.5417 22H11.4583C16.4267 22 18.9127 22 20.4563 20.4563C22 18.9127 22 16.4274 22 11.4583V10.5417C22 5.57333 22 3.08733 20.4563 1.54367C18.9127 0 16.4274 0 11.4583 0H10.5417C5.57333 0 3.08733 0 1.54367 1.54367ZM4.35371 6.875H5.95751C6.36744 6.875 6.52144 7.05467 6.67544 7.49907C7.46011 9.78413 8.78304 11.7817 9.32644 11.7817C9.53104 11.7817 9.62418 11.6879 9.62418 11.1694V8.80733C9.58745 8.13492 9.35252 7.84405 9.17852 7.62863C9.07111 7.49563 8.98691 7.39138 8.98691 7.24387C8.98691 7.0642 9.14018 6.875 9.39464 6.875H11.9158C12.2561 6.875 12.3742 7.05687 12.3742 7.4646V10.6429C12.3742 10.9824 12.5216 11.1019 12.6235 11.1019C12.8274 11.1019 12.9975 10.9824 13.3715 10.6084C14.5272 9.317 15.3427 7.32893 15.3427 7.32893C15.4446 7.0906 15.6331 6.875 16.0408 6.875H17.6446C18.1301 6.875 18.2328 7.12507 18.1301 7.4646C17.9262 8.3996 15.9719 11.1525 15.9719 11.1525C15.8018 11.4246 15.7336 11.5603 15.9719 11.8661C16.056 11.9839 16.2355 12.1598 16.4406 12.3608C16.6505 12.5665 16.8872 12.7986 17.0763 13.0218C17.7656 13.7969 18.2848 14.4511 18.4293 14.9013C18.562 15.3538 18.3325 15.5833 17.8742 15.5833H16.2696C15.8401 15.5833 15.624 15.3428 15.1566 14.8225C14.9585 14.602 14.7153 14.3313 14.3916 14.0074C13.439 13.09 13.032 12.9712 12.7936 12.9712C12.471 12.9712 12.3742 13.0629 12.3742 13.5212V14.96C12.3742 15.3538 12.248 15.5833 11.228 15.5833C9.52884 15.5833 7.66104 14.5515 6.33591 12.6478C4.34711 9.86113 3.80371 7.75353 3.80371 7.32893C3.80371 7.0906 3.89538 6.875 4.35371 6.875Z" fill="white" fill-opacity="0.7"/>
</svg>
